<?xml version="1.0" encoding="iso-8859-1"?>
<!-- Uploaded to: SVG Repo, www.svgrepo.com, Generator: SVG Repo Mixer Tools -->
<svg fill="#000000" height="800px" width="800px" version="1.1" id="Layer_1" xmlns="http://www.w3.org/2000/svg" xmlns:xlink="http://www.w3.org/1999/xlink" 
	 viewBox="0 0 508 508" xml:space="preserve">
<g>
	<g>
		<path d="M490,62H22C11.612,62,0,70.552,0,82v360c0,2.208,1.788,4,4,4s4-1.792,4-4V82c0-6.648,7.66-12,14-12h468
			c6.908,0,10,6.028,10,12v360c0,2.208,1.788,4,4,4c2.212,0,4-1.792,4-4V82C508,70.412,500.428,62,490,62z"/>
	</g>
</g>
<g>
	<g>
		<path d="M504,414H4c-2.212,0-4,1.792-4,4s1.788,4,4,4h500c2.212,0,4-1.792,4-4S506.212,414,504,414z"/>
	</g>
</g>
<g>
	<g>
		<path d="M488,238H120c-2.212,0-4,1.792-4,4s1.788,4,4,4h368c2.212,0,4-1.792,4-4S490.212,238,488,238z"/>
	</g>
</g>
<g>
	<g>
		<path d="M104,238H4c-2.212,0-4,1.792-4,4s1.788,4,4,4h100c2.212,0,4-1.792,4-4S106.212,238,104,238z"/>
	</g>
</g>
<g>
	<g>
		<path d="M204,150H4c-2.212,0-4,1.792-4,4s1.788,4,4,4h200c2.212,0,4-1.792,4-4S206.212,150,204,150z"/>
	</g>
</g>
<g>
	<g>
		<path d="M504,150H220c-2.212,0-4,1.792-4,4s1.788,4,4,4h284c2.212,0,4-1.792,4-4S506.212,150,504,150z"/>
	</g>
</g>
<g>
	<g>
		<path d="M88,326H4c-2.212,0-4,1.792-4,4s1.788,4,4,4h84c2.212,0,4-1.792,4-4S90.212,326,88,326z"/>
	</g>
</g>
<g>
	<g>
		<path d="M504,326H104c-2.212,0-4,1.792-4,4s1.788,4,4,4h400c2.212,0,4-1.792,4-4S506.212,326,504,326z"/>
	</g>
</g>
<g>
	<g>
		<path d="M204,66c-2.212,0-4,1.792-4,4v344c0,2.208,1.788,4,4,4c2.212,0,4-1.792,4-4V70C208,67.792,206.212,66,204,66z"/>
	</g>
</g>
<g>
	<g>
		<path d="M104,66c-2.212,0-4,1.792-4,4v344c0,2.208,1.788,4,4,4s4-1.792,4-4V70C108,67.792,106.212,66,104,66z"/>
	</g>
</g>
<g>
	<g>
		<path d="M304,66c-2.212,0-4,1.792-4,4v244c0,2.208,1.788,4,4,4c2.212,0,4-1.792,4-4V70C308,67.792,306.212,66,304,66z"/>
	</g>
</g>
<g>
	<g>
		<path d="M304,326c-2.212,0-4,1.792-4,4v88c0,2.208,1.788,4,4,4c2.212,0,4-1.792,4-4v-88C308,327.792,306.212,326,304,326z"/>
	</g>
</g>
<g>
	<g>
		<path d="M404,66c-2.212,0-4,1.792-4,4v68c0,2.208,1.788,4,4,4c2.212,0,4-1.792,4-4V70C408,67.792,406.212,66,404,66z"/>
	</g>
</g>
<g>
	<g>
		<path d="M404,150c-2.212,0-4,1.792-4,4v264c0,2.208,1.788,4,4,4c2.212,0,4-1.792,4-4V154C408,151.792,406.212,150,404,150z"/>
	</g>
</g>
</svg>