solid CATIA STL
  facet normal -8.314689e-001  5.555713e-001  0.000000e+000
    outer loop
      vertex -9.442893e+000  2.889132e+001  2.500000e+000
      vertex -9.226120e+000  2.921575e+001  3.500000e+000
      vertex -9.226120e+000  2.921575e+001  2.500000e+000
    endloop
  endfacet
  facet normal -9.807855e-001  1.950895e-001  0.000000e+000
    outer loop
      vertex -9.226120e+000  2.921575e+001  2.500000e+000
      vertex -9.226120e+000  2.921575e+001  3.500000e+000
      vertex -9.150000e+000  2.959843e+001  3.500000e+000
    endloop
  endfacet
  facet normal -9.807855e-001  1.950895e-001  0.000000e+000
    outer loop
      vertex -9.226120e+000  2.921575e+001  2.500000e+000
      vertex -9.150000e+000  2.959843e+001  3.500000e+000
      vertex -9.150000e+000  2.959843e+001  2.500000e+000
    endloop
  endfacet
  facet normal -8.314689e-001  5.555713e-001  0.000000e+000
    outer loop
      vertex -9.226120e+000  2.921575e+001  3.500000e+000
      vertex -9.442893e+000  2.889132e+001  2.500000e+000
      vertex -9.442893e+000  2.889132e+001  3.500000e+000
    endloop
  endfacet
  facet normal -5.555685e-001  8.314707e-001  0.000000e+000
    outer loop
      vertex -9.442893e+000  2.889132e+001  3.500000e+000
      vertex -9.442893e+000  2.889132e+001  2.500000e+000
      vertex -9.767317e+000  2.867455e+001  2.500000e+000
    endloop
  endfacet
  facet normal -5.555685e-001  8.314707e-001  0.000000e+000
    outer loop
      vertex -9.442893e+000  2.889132e+001  3.500000e+000
      vertex -9.767317e+000  2.867455e+001  2.500000e+000
      vertex -9.767317e+000  2.867455e+001  3.500000e+000
    endloop
  endfacet
  facet normal -1.950904e-001  9.807853e-001  0.000000e+000
    outer loop
      vertex -9.767317e+000  2.867455e+001  3.500000e+000
      vertex -9.767317e+000  2.867455e+001  2.500000e+000
      vertex -1.015000e+001  2.859843e+001  2.500000e+000
    endloop
  endfacet
  facet normal -1.950904e-001  9.807853e-001  0.000000e+000
    outer loop
      vertex -9.767317e+000  2.867455e+001  3.500000e+000
      vertex -1.015000e+001  2.859843e+001  2.500000e+000
      vertex -1.015000e+001  2.859843e+001  3.500000e+000
    endloop
  endfacet
  facet normal  0.000000e+000  0.000000e+000  9.999999e-001
    outer loop
      vertex  1.585000e+001  2.959843e+001  1.500000e+000
      vertex  1.955000e+001  2.959843e+001  1.500000e+000
      vertex  1.585000e+001  3.909843e+001  1.500000e+000
    endloop
  endfacet
  facet normal  -0.000000e+000  0.000000e+000  1.000000e+000
    outer loop
      vertex  1.585000e+001  3.909843e+001  1.500000e+000
      vertex  1.955000e+001  2.959843e+001  1.500000e+000
      vertex  1.955000e+001  6.589843e+001  1.500000e+000
    endloop
  endfacet
  facet normal  0.000000e+000  0.000000e+000  1.000000e+000
    outer loop
      vertex  1.585000e+001  3.909843e+001  1.500000e+000
      vertex  1.955000e+001  6.589843e+001  1.500000e+000
      vertex -1.015000e+001  3.909843e+001  1.500000e+000
    endloop
  endfacet
  facet normal  0.000000e+000  -0.000000e+000  1.000000e+000
    outer loop
      vertex -1.015000e+001  3.909843e+001  1.500000e+000
      vertex  1.955000e+001  6.589843e+001  1.500000e+000
      vertex -1.955000e+001  6.589843e+001  1.500000e+000
    endloop
  endfacet
  facet normal  0.000000e+000  0.000000e+000  1.000000e+000
    outer loop
      vertex -1.015000e+001  3.909843e+001  1.500000e+000
      vertex -1.955000e+001  6.589843e+001  1.500000e+000
      vertex -1.015000e+001  2.959843e+001  1.500000e+000
    endloop
  endfacet
  facet normal  0.000000e+000  0.000000e+000  9.999999e-001
    outer loop
      vertex -1.015000e+001  2.959843e+001  1.500000e+000
      vertex -1.955000e+001  6.589843e+001  1.500000e+000
      vertex -1.955000e+001  2.959843e+001  1.500000e+000
    endloop
  endfacet
  facet normal  0.000000e+000  1.000000e+000  -0.000000e+000
    outer loop
      vertex -1.015000e+001  2.859843e+001  3.500000e+000
      vertex -1.015000e+001  2.859843e+001  2.500000e+000
      vertex -1.955000e+001  2.859843e+001  3.500000e+000
    endloop
  endfacet
  facet normal  0.000000e+000  1.000000e+000  0.000000e+000
    outer loop
      vertex -1.955000e+001  2.859843e+001  3.500000e+000
      vertex -1.015000e+001  2.859843e+001  2.500000e+000
      vertex -1.955000e+001  2.859843e+001  2.500000e+000
    endloop
  endfacet
  facet normal -1.000000e+000  -0.000000e+000  0.000000e+000
    outer loop
      vertex -9.150000e+000  2.959843e+001  3.500000e+000
      vertex -9.150000e+000  3.809843e+001  3.500000e+000
      vertex -9.150000e+000  2.959843e+001  2.500000e+000
    endloop
  endfacet
  facet normal -1.000000e+000  0.000000e+000  0.000000e+000
    outer loop
      vertex -9.150000e+000  2.959843e+001  2.500000e+000
      vertex -9.150000e+000  3.809843e+001  3.500000e+000
      vertex -9.150000e+000  3.809843e+001  2.500000e+000
    endloop
  endfacet
  facet normal  5.555685e-001  8.314707e-001  0.000000e+000
    outer loop
      vertex  1.514289e+001  2.889132e+001  2.500000e+000
      vertex  1.546732e+001  2.867455e+001  3.500000e+000
      vertex  1.546732e+001  2.867455e+001  2.500000e+000
    endloop
  endfacet
  facet normal  1.950899e-001  9.807853e-001  -0.000000e+000
    outer loop
      vertex  1.546732e+001  2.867455e+001  2.500000e+000
      vertex  1.546732e+001  2.867455e+001  3.500000e+000
      vertex  1.585000e+001  2.859843e+001  3.500000e+000
    endloop
  endfacet
  facet normal  1.950899e-001  9.807853e-001  0.000000e+000
    outer loop
      vertex  1.546732e+001  2.867455e+001  2.500000e+000
      vertex  1.585000e+001  2.859843e+001  3.500000e+000
      vertex  1.585000e+001  2.859843e+001  2.500000e+000
    endloop
  endfacet
  facet normal  5.555685e-001  8.314707e-001  -0.000000e+000
    outer loop
      vertex  1.546732e+001  2.867455e+001  3.500000e+000
      vertex  1.514289e+001  2.889132e+001  2.500000e+000
      vertex  1.514289e+001  2.889132e+001  3.500000e+000
    endloop
  endfacet
  facet normal  8.314700e-001  5.555696e-001  0.000000e+000
    outer loop
      vertex  1.514289e+001  2.889132e+001  3.500000e+000
      vertex  1.514289e+001  2.889132e+001  2.500000e+000
      vertex  1.492612e+001  2.921575e+001  2.500000e+000
    endloop
  endfacet
  facet normal  8.314700e-001  5.555696e-001  -0.000000e+000
    outer loop
      vertex  1.514289e+001  2.889132e+001  3.500000e+000
      vertex  1.492612e+001  2.921575e+001  2.500000e+000
      vertex  1.492612e+001  2.921575e+001  3.500000e+000
    endloop
  endfacet
  facet normal  9.807855e-001  1.950895e-001  0.000000e+000
    outer loop
      vertex  1.492612e+001  2.921575e+001  3.500000e+000
      vertex  1.492612e+001  2.921575e+001  2.500000e+000
      vertex  1.485000e+001  2.959843e+001  2.500000e+000
    endloop
  endfacet
  facet normal  9.807855e-001  1.950895e-001  -0.000000e+000
    outer loop
      vertex  1.492612e+001  2.921575e+001  3.500000e+000
      vertex  1.485000e+001  2.959843e+001  2.500000e+000
      vertex  1.485000e+001  2.959843e+001  3.500000e+000
    endloop
  endfacet
  facet normal  0.000000e+000  1.000000e+000  -0.000000e+000
    outer loop
      vertex  1.955000e+001  2.859843e+001  3.500000e+000
      vertex  1.955000e+001  2.859843e+001  2.500000e+000
      vertex  1.585000e+001  2.859843e+001  3.500000e+000
    endloop
  endfacet
  facet normal  0.000000e+000  1.000000e+000  0.000000e+000
    outer loop
      vertex  1.585000e+001  2.859843e+001  3.500000e+000
      vertex  1.955000e+001  2.859843e+001  2.500000e+000
      vertex  1.585000e+001  2.859843e+001  2.500000e+000
    endloop
  endfacet
  facet normal  1.000000e+000  -0.000000e+000  0.000000e+000
    outer loop
      vertex  1.485000e+001  3.809843e+001  3.500000e+000
      vertex  1.485000e+001  2.959843e+001  3.500000e+000
      vertex  1.485000e+001  3.809843e+001  2.500000e+000
    endloop
  endfacet
  facet normal  1.000000e+000  0.000000e+000  0.000000e+000
    outer loop
      vertex  1.485000e+001  3.809843e+001  2.500000e+000
      vertex  1.485000e+001  2.959843e+001  3.500000e+000
      vertex  1.485000e+001  2.959843e+001  2.500000e+000
    endloop
  endfacet
  facet normal -5.555730e-001 -8.314677e-001  -0.000000e+000
    outer loop
      vertex  2.025711e+001  6.660554e+001  2.500000e+000
      vertex  1.993268e+001  6.682231e+001  3.500000e+000
      vertex  1.993268e+001  6.682231e+001  2.500000e+000
    endloop
  endfacet
  facet normal -1.950848e-001 -9.807864e-001  0.000000e+000
    outer loop
      vertex  1.993268e+001  6.682231e+001  2.500000e+000
      vertex  1.993268e+001  6.682231e+001  3.500000e+000
      vertex  1.955000e+001  6.689843e+001  3.500000e+000
    endloop
  endfacet
  facet normal -1.950848e-001 -9.807864e-001  -0.000000e+000
    outer loop
      vertex  1.993268e+001  6.682231e+001  2.500000e+000
      vertex  1.955000e+001  6.689843e+001  3.500000e+000
      vertex  1.955000e+001  6.689843e+001  2.500000e+000
    endloop
  endfacet
  facet normal -5.555730e-001 -8.314677e-001  0.000000e+000
    outer loop
      vertex  1.993268e+001  6.682231e+001  3.500000e+000
      vertex  2.025711e+001  6.660554e+001  2.500000e+000
      vertex  2.025711e+001  6.660554e+001  3.500000e+000
    endloop
  endfacet
  facet normal -8.314715e-001 -5.555674e-001  -0.000000e+000
    outer loop
      vertex  2.025711e+001  6.660554e+001  3.500000e+000
      vertex  2.025711e+001  6.660554e+001  2.500000e+000
      vertex  2.047388e+001  6.628111e+001  2.500000e+000
    endloop
  endfacet
  facet normal -8.314715e-001 -5.555674e-001  0.000000e+000
    outer loop
      vertex  2.025711e+001  6.660554e+001  3.500000e+000
      vertex  2.047388e+001  6.628111e+001  2.500000e+000
      vertex  2.047388e+001  6.628111e+001  3.500000e+000
    endloop
  endfacet
  facet normal -9.807853e-001 -1.950904e-001  -0.000000e+000
    outer loop
      vertex  2.047388e+001  6.628111e+001  3.500000e+000
      vertex  2.047388e+001  6.628111e+001  2.500000e+000
      vertex  2.055000e+001  6.589843e+001  2.500000e+000
    endloop
  endfacet
  facet normal -9.807853e-001 -1.950904e-001  0.000000e+000
    outer loop
      vertex  2.047388e+001  6.628111e+001  3.500000e+000
      vertex  2.055000e+001  6.589843e+001  2.500000e+000
      vertex  2.055000e+001  6.589843e+001  3.500000e+000
    endloop
  endfacet
  facet normal -1.000000e+000  -0.000000e+000  0.000000e+000
    outer loop
      vertex  2.055000e+001  2.959843e+001  3.500000e+000
      vertex  2.055000e+001  6.589843e+001  3.500000e+000
      vertex  2.055000e+001  2.959843e+001  2.500000e+000
    endloop
  endfacet
  facet normal -1.000000e+000  0.000000e+000  0.000000e+000
    outer loop
      vertex  2.055000e+001  2.959843e+001  2.500000e+000
      vertex  2.055000e+001  6.589843e+001  3.500000e+000
      vertex  2.055000e+001  6.589843e+001  2.500000e+000
    endloop
  endfacet
  facet normal  0.000000e+000 -1.000000e+000  0.000000e+000
    outer loop
      vertex -1.955000e+001  6.689843e+001  3.500000e+000
      vertex -1.955000e+001  6.689843e+001  2.500000e+000
      vertex  1.955000e+001  6.689843e+001  3.500000e+000
    endloop
  endfacet
  facet normal  0.000000e+000 -1.000000e+000  -0.000000e+000
    outer loop
      vertex  1.955000e+001  6.689843e+001  3.500000e+000
      vertex -1.955000e+001  6.689843e+001  2.500000e+000
      vertex  1.955000e+001  6.689843e+001  2.500000e+000
    endloop
  endfacet
  facet normal -8.314700e-001  5.555696e-001  0.000000e+000
    outer loop
      vertex  2.025711e+001  2.889132e+001  2.500000e+000
      vertex  2.047388e+001  2.921575e+001  3.500000e+000
      vertex  2.047388e+001  2.921575e+001  2.500000e+000
    endloop
  endfacet
  facet normal -9.807855e-001  1.950895e-001  0.000000e+000
    outer loop
      vertex  2.047388e+001  2.921575e+001  2.500000e+000
      vertex  2.047388e+001  2.921575e+001  3.500000e+000
      vertex  2.055000e+001  2.959843e+001  3.500000e+000
    endloop
  endfacet
  facet normal -9.807855e-001  1.950895e-001  0.000000e+000
    outer loop
      vertex  2.047388e+001  2.921575e+001  2.500000e+000
      vertex  2.055000e+001  2.959843e+001  3.500000e+000
      vertex  2.055000e+001  2.959843e+001  2.500000e+000
    endloop
  endfacet
  facet normal -8.314700e-001  5.555696e-001  0.000000e+000
    outer loop
      vertex  2.047388e+001  2.921575e+001  3.500000e+000
      vertex  2.025711e+001  2.889132e+001  2.500000e+000
      vertex  2.025711e+001  2.889132e+001  3.500000e+000
    endloop
  endfacet
  facet normal -5.555696e-001  8.314700e-001  0.000000e+000
    outer loop
      vertex  2.025711e+001  2.889132e+001  3.500000e+000
      vertex  2.025711e+001  2.889132e+001  2.500000e+000
      vertex  1.993268e+001  2.867455e+001  2.500000e+000
    endloop
  endfacet
  facet normal -5.555696e-001  8.314700e-001  0.000000e+000
    outer loop
      vertex  2.025711e+001  2.889132e+001  3.500000e+000
      vertex  1.993268e+001  2.867455e+001  2.500000e+000
      vertex  1.993268e+001  2.867455e+001  3.500000e+000
    endloop
  endfacet
  facet normal -1.950895e-001  9.807855e-001  0.000000e+000
    outer loop
      vertex  1.993268e+001  2.867455e+001  3.500000e+000
      vertex  1.993268e+001  2.867455e+001  2.500000e+000
      vertex  1.955000e+001  2.859843e+001  2.500000e+000
    endloop
  endfacet
  facet normal -1.950895e-001  9.807855e-001  0.000000e+000
    outer loop
      vertex  1.993268e+001  2.867455e+001  3.500000e+000
      vertex  1.955000e+001  2.859843e+001  2.500000e+000
      vertex  1.955000e+001  2.859843e+001  3.500000e+000
    endloop
  endfacet
  facet normal  5.555696e-001  8.314700e-001  0.000000e+000
    outer loop
      vertex -2.025711e+001  2.889132e+001  2.500000e+000
      vertex -1.993268e+001  2.867455e+001  3.500000e+000
      vertex -1.993268e+001  2.867455e+001  2.500000e+000
    endloop
  endfacet
  facet normal  1.950895e-001  9.807855e-001  -0.000000e+000
    outer loop
      vertex -1.993268e+001  2.867455e+001  2.500000e+000
      vertex -1.993268e+001  2.867455e+001  3.500000e+000
      vertex -1.955000e+001  2.859843e+001  3.500000e+000
    endloop
  endfacet
  facet normal  1.950895e-001  9.807855e-001  0.000000e+000
    outer loop
      vertex -1.993268e+001  2.867455e+001  2.500000e+000
      vertex -1.955000e+001  2.859843e+001  3.500000e+000
      vertex -1.955000e+001  2.859843e+001  2.500000e+000
    endloop
  endfacet
  facet normal  5.555696e-001  8.314700e-001  -0.000000e+000
    outer loop
      vertex -1.993268e+001  2.867455e+001  3.500000e+000
      vertex -2.025711e+001  2.889132e+001  2.500000e+000
      vertex -2.025711e+001  2.889132e+001  3.500000e+000
    endloop
  endfacet
  facet normal  8.314700e-001  5.555696e-001  0.000000e+000
    outer loop
      vertex -2.025711e+001  2.889132e+001  3.500000e+000
      vertex -2.025711e+001  2.889132e+001  2.500000e+000
      vertex -2.047388e+001  2.921575e+001  2.500000e+000
    endloop
  endfacet
  facet normal  8.314700e-001  5.555696e-001  -0.000000e+000
    outer loop
      vertex -2.025711e+001  2.889132e+001  3.500000e+000
      vertex -2.047388e+001  2.921575e+001  2.500000e+000
      vertex -2.047388e+001  2.921575e+001  3.500000e+000
    endloop
  endfacet
  facet normal  9.807855e-001  1.950895e-001  0.000000e+000
    outer loop
      vertex -2.047388e+001  2.921575e+001  3.500000e+000
      vertex -2.047388e+001  2.921575e+001  2.500000e+000
      vertex -2.055000e+001  2.959843e+001  2.500000e+000
    endloop
  endfacet
  facet normal  9.807855e-001  1.950895e-001  -0.000000e+000
    outer loop
      vertex -2.047388e+001  2.921575e+001  3.500000e+000
      vertex -2.055000e+001  2.959843e+001  2.500000e+000
      vertex -2.055000e+001  2.959843e+001  3.500000e+000
    endloop
  endfacet
  facet normal  1.000000e+000  -0.000000e+000  0.000000e+000
    outer loop
      vertex -2.055000e+001  6.589843e+001  3.500000e+000
      vertex -2.055000e+001  2.959843e+001  3.500000e+000
      vertex -2.055000e+001  6.589843e+001  2.500000e+000
    endloop
  endfacet
  facet normal  1.000000e+000  0.000000e+000  0.000000e+000
    outer loop
      vertex -2.055000e+001  6.589843e+001  2.500000e+000
      vertex -2.055000e+001  2.959843e+001  3.500000e+000
      vertex -2.055000e+001  2.959843e+001  2.500000e+000
    endloop
  endfacet
  facet normal  8.314715e-001 -5.555674e-001  0.000000e+000
    outer loop
      vertex -2.025711e+001  6.660554e+001  2.500000e+000
      vertex -2.047388e+001  6.628111e+001  3.500000e+000
      vertex -2.047388e+001  6.628111e+001  2.500000e+000
    endloop
  endfacet
  facet normal  9.807853e-001 -1.950904e-001  0.000000e+000
    outer loop
      vertex -2.047388e+001  6.628111e+001  2.500000e+000
      vertex -2.047388e+001  6.628111e+001  3.500000e+000
      vertex -2.055000e+001  6.589843e+001  3.500000e+000
    endloop
  endfacet
  facet normal  9.807853e-001 -1.950904e-001  0.000000e+000
    outer loop
      vertex -2.047388e+001  6.628111e+001  2.500000e+000
      vertex -2.055000e+001  6.589843e+001  3.500000e+000
      vertex -2.055000e+001  6.589843e+001  2.500000e+000
    endloop
  endfacet
  facet normal  8.314715e-001 -5.555674e-001  0.000000e+000
    outer loop
      vertex -2.047388e+001  6.628111e+001  3.500000e+000
      vertex -2.025711e+001  6.660554e+001  2.500000e+000
      vertex -2.025711e+001  6.660554e+001  3.500000e+000
    endloop
  endfacet
  facet normal  5.555730e-001 -8.314677e-001  0.000000e+000
    outer loop
      vertex -2.025711e+001  6.660554e+001  3.500000e+000
      vertex -2.025711e+001  6.660554e+001  2.500000e+000
      vertex -1.993268e+001  6.682231e+001  2.500000e+000
    endloop
  endfacet
  facet normal  5.555730e-001 -8.314677e-001  0.000000e+000
    outer loop
      vertex -2.025711e+001  6.660554e+001  3.500000e+000
      vertex -1.993268e+001  6.682231e+001  2.500000e+000
      vertex -1.993268e+001  6.682231e+001  3.500000e+000
    endloop
  endfacet
  facet normal  1.950848e-001 -9.807864e-001  0.000000e+000
    outer loop
      vertex -1.993268e+001  6.682231e+001  3.500000e+000
      vertex -1.993268e+001  6.682231e+001  2.500000e+000
      vertex -1.955000e+001  6.689843e+001  2.500000e+000
    endloop
  endfacet
  facet normal  1.950848e-001 -9.807864e-001  0.000000e+000
    outer loop
      vertex -1.993268e+001  6.682231e+001  3.500000e+000
      vertex -1.955000e+001  6.689843e+001  2.500000e+000
      vertex -1.955000e+001  6.689843e+001  3.500000e+000
    endloop
  endfacet
  facet normal  0.000000e+000  1.000000e+000  0.000000e+000
    outer loop
      vertex -9.150000e+000  3.809843e+001  3.500000e+000
      vertex  1.485000e+001  3.809843e+001  3.500000e+000
      vertex -9.150000e+000  3.809843e+001  2.500000e+000
    endloop
  endfacet
  facet normal  0.000000e+000  1.000000e+000  0.000000e+000
    outer loop
      vertex -9.150000e+000  3.809843e+001  2.500000e+000
      vertex  1.485000e+001  3.809843e+001  3.500000e+000
      vertex  1.485000e+001  3.809843e+001  2.500000e+000
    endloop
  endfacet
  facet normal -7.071068e-001  0.000000e+000  7.071068e-001
    outer loop
      vertex -9.150000e+000  2.959843e+001  2.500000e+000
      vertex -9.150000e+000  3.809843e+001  2.500000e+000
      vertex -1.015000e+001  2.959843e+001  1.500000e+000
    endloop
  endfacet
  facet normal -7.071068e-001  0.000000e+000  7.071068e-001
    outer loop
      vertex -1.015000e+001  2.959843e+001  1.500000e+000
      vertex -9.150000e+000  3.809843e+001  2.500000e+000
      vertex -1.015000e+001  3.909843e+001  1.500000e+000
    endloop
  endfacet
  facet normal  7.071068e-001  -0.000000e+000  7.071068e-001
    outer loop
      vertex  1.485000e+001  3.809843e+001  2.500000e+000
      vertex  1.485000e+001  2.959843e+001  2.500000e+000
      vertex  1.585000e+001  3.909843e+001  1.500000e+000
    endloop
  endfacet
  facet normal  7.071068e-001  0.000000e+000  7.071068e-001
    outer loop
      vertex  1.585000e+001  3.909843e+001  1.500000e+000
      vertex  1.485000e+001  2.959843e+001  2.500000e+000
      vertex  1.585000e+001  2.959843e+001  1.500000e+000
    endloop
  endfacet
  facet normal  0.000000e+000  7.071068e-001  7.071068e-001
    outer loop
      vertex -9.150000e+000  3.809843e+001  2.500000e+000
      vertex  1.485000e+001  3.809843e+001  2.500000e+000
      vertex -1.015000e+001  3.909843e+001  1.500000e+000
    endloop
  endfacet
  facet normal  -0.000000e+000  7.071067e-001  7.071067e-001
    outer loop
      vertex -1.015000e+001  3.909843e+001  1.500000e+000
      vertex  1.485000e+001  3.809843e+001  2.500000e+000
      vertex  1.585000e+001  3.909843e+001  1.500000e+000
    endloop
  endfacet
  facet normal  7.002146e-001  1.392807e-001  7.002146e-001
    outer loop
      vertex  1.585000e+001  2.959843e+001  1.500000e+000
      vertex  1.485000e+001  2.959843e+001  2.500000e+000
      vertex  1.492612e+001  2.921575e+001  2.500000e+000
    endloop
  endfacet
  facet normal  5.936132e-001  3.966390e-001  7.002149e-001
    outer loop
      vertex  1.585000e+001  2.959843e+001  1.500000e+000
      vertex  1.492612e+001  2.921575e+001  2.500000e+000
      vertex  1.514289e+001  2.889132e+001  2.500000e+000
    endloop
  endfacet
  facet normal  3.966383e-001  5.936138e-001  7.002147e-001
    outer loop
      vertex  1.585000e+001  2.959843e+001  1.500000e+000
      vertex  1.514289e+001  2.889132e+001  2.500000e+000
      vertex  1.546732e+001  2.867455e+001  2.500000e+000
    endloop
  endfacet
  facet normal  1.392810e-001  7.002145e-001  7.002145e-001
    outer loop
      vertex  1.585000e+001  2.959843e+001  1.500000e+000
      vertex  1.546732e+001  2.867455e+001  2.500000e+000
      vertex  1.585000e+001  2.859843e+001  2.500000e+000
    endloop
  endfacet
  facet normal  0.000000e+000  7.071067e-001  7.071067e-001
    outer loop
      vertex  1.955000e+001  2.859843e+001  2.500000e+000
      vertex  1.955000e+001  2.959843e+001  1.500000e+000
      vertex  1.585000e+001  2.859843e+001  2.500000e+000
    endloop
  endfacet
  facet normal  0.000000e+000  7.071067e-001  7.071067e-001
    outer loop
      vertex  1.585000e+001  2.859843e+001  2.500000e+000
      vertex  1.955000e+001  2.959843e+001  1.500000e+000
      vertex  1.585000e+001  2.959843e+001  1.500000e+000
    endloop
  endfacet
  facet normal -1.392807e-001  7.002146e-001  7.002146e-001
    outer loop
      vertex  1.955000e+001  2.959843e+001  1.500000e+000
      vertex  1.955000e+001  2.859843e+001  2.500000e+000
      vertex  1.993268e+001  2.867455e+001  2.500000e+000
    endloop
  endfacet
  facet normal -3.966390e-001  5.936132e-001  7.002149e-001
    outer loop
      vertex  1.955000e+001  2.959843e+001  1.500000e+000
      vertex  1.993268e+001  2.867455e+001  2.500000e+000
      vertex  2.025711e+001  2.889132e+001  2.500000e+000
    endloop
  endfacet
  facet normal -5.936132e-001  3.966390e-001  7.002149e-001
    outer loop
      vertex  1.955000e+001  2.959843e+001  1.500000e+000
      vertex  2.025711e+001  2.889132e+001  2.500000e+000
      vertex  2.047388e+001  2.921575e+001  2.500000e+000
    endloop
  endfacet
  facet normal -7.002146e-001  1.392807e-001  7.002146e-001
    outer loop
      vertex  1.955000e+001  2.959843e+001  1.500000e+000
      vertex  2.047388e+001  2.921575e+001  2.500000e+000
      vertex  2.055000e+001  2.959843e+001  2.500000e+000
    endloop
  endfacet
  facet normal -7.071068e-001  0.000000e+000  7.071068e-001
    outer loop
      vertex  2.055000e+001  2.959843e+001  2.500000e+000
      vertex  2.055000e+001  6.589843e+001  2.500000e+000
      vertex  1.955000e+001  2.959843e+001  1.500000e+000
    endloop
  endfacet
  facet normal -7.071068e-001  0.000000e+000  7.071068e-001
    outer loop
      vertex  1.955000e+001  2.959843e+001  1.500000e+000
      vertex  2.055000e+001  6.589843e+001  2.500000e+000
      vertex  1.955000e+001  6.589843e+001  1.500000e+000
    endloop
  endfacet
  facet normal -7.002144e-001 -1.392814e-001  7.002144e-001
    outer loop
      vertex  1.955000e+001  6.589843e+001  1.500000e+000
      vertex  2.055000e+001  6.589843e+001  2.500000e+000
      vertex  2.047388e+001  6.628111e+001  2.500000e+000
    endloop
  endfacet
  facet normal -5.936145e-001 -3.966376e-001  7.002147e-001
    outer loop
      vertex  1.955000e+001  6.589843e+001  1.500000e+000
      vertex  2.047388e+001  6.628111e+001  2.500000e+000
      vertex  2.025711e+001  6.660554e+001  2.500000e+000
    endloop
  endfacet
  facet normal -3.966413e-001 -5.936114e-001  7.002151e-001
    outer loop
      vertex  1.955000e+001  6.589843e+001  1.500000e+000
      vertex  2.025711e+001  6.660554e+001  2.500000e+000
      vertex  1.993268e+001  6.682231e+001  2.500000e+000
    endloop
  endfacet
  facet normal -1.392773e-001 -7.002149e-001  7.002149e-001
    outer loop
      vertex  1.955000e+001  6.589843e+001  1.500000e+000
      vertex  1.993268e+001  6.682231e+001  2.500000e+000
      vertex  1.955000e+001  6.689843e+001  2.500000e+000
    endloop
  endfacet
  facet normal  0.000000e+000 -7.071068e-001  7.071068e-001
    outer loop
      vertex -1.955000e+001  6.689843e+001  2.500000e+000
      vertex -1.955000e+001  6.589843e+001  1.500000e+000
      vertex  1.955000e+001  6.689843e+001  2.500000e+000
    endloop
  endfacet
  facet normal  0.000000e+000 -7.071068e-001  7.071068e-001
    outer loop
      vertex  1.955000e+001  6.689843e+001  2.500000e+000
      vertex -1.955000e+001  6.589843e+001  1.500000e+000
      vertex  1.955000e+001  6.589843e+001  1.500000e+000
    endloop
  endfacet
  facet normal  1.392773e-001 -7.002149e-001  7.002149e-001
    outer loop
      vertex -1.955000e+001  6.589843e+001  1.500000e+000
      vertex -1.955000e+001  6.689843e+001  2.500000e+000
      vertex -1.993268e+001  6.682231e+001  2.500000e+000
    endloop
  endfacet
  facet normal  3.966413e-001 -5.936114e-001  7.002151e-001
    outer loop
      vertex -1.955000e+001  6.589843e+001  1.500000e+000
      vertex -1.993268e+001  6.682231e+001  2.500000e+000
      vertex -2.025711e+001  6.660554e+001  2.500000e+000
    endloop
  endfacet
  facet normal  5.936145e-001 -3.966376e-001  7.002147e-001
    outer loop
      vertex -1.955000e+001  6.589843e+001  1.500000e+000
      vertex -2.025711e+001  6.660554e+001  2.500000e+000
      vertex -2.047388e+001  6.628111e+001  2.500000e+000
    endloop
  endfacet
  facet normal  7.002144e-001 -1.392814e-001  7.002144e-001
    outer loop
      vertex -1.955000e+001  6.589843e+001  1.500000e+000
      vertex -2.047388e+001  6.628111e+001  2.500000e+000
      vertex -2.055000e+001  6.589843e+001  2.500000e+000
    endloop
  endfacet
  facet normal  7.071068e-001  -0.000000e+000  7.071068e-001
    outer loop
      vertex -2.055000e+001  6.589843e+001  2.500000e+000
      vertex -2.055000e+001  2.959843e+001  2.500000e+000
      vertex -1.955000e+001  6.589843e+001  1.500000e+000
    endloop
  endfacet
  facet normal  7.071068e-001  0.000000e+000  7.071068e-001
    outer loop
      vertex -1.955000e+001  6.589843e+001  1.500000e+000
      vertex -2.055000e+001  2.959843e+001  2.500000e+000
      vertex -1.955000e+001  2.959843e+001  1.500000e+000
    endloop
  endfacet
  facet normal  7.002146e-001  1.392807e-001  7.002146e-001
    outer loop
      vertex -1.955000e+001  2.959843e+001  1.500000e+000
      vertex -2.055000e+001  2.959843e+001  2.500000e+000
      vertex -2.047388e+001  2.921575e+001  2.500000e+000
    endloop
  endfacet
  facet normal  5.936132e-001  3.966390e-001  7.002149e-001
    outer loop
      vertex -1.955000e+001  2.959843e+001  1.500000e+000
      vertex -2.047388e+001  2.921575e+001  2.500000e+000
      vertex -2.025711e+001  2.889132e+001  2.500000e+000
    endloop
  endfacet
  facet normal  3.966390e-001  5.936132e-001  7.002149e-001
    outer loop
      vertex -1.955000e+001  2.959843e+001  1.500000e+000
      vertex -2.025711e+001  2.889132e+001  2.500000e+000
      vertex -1.993268e+001  2.867455e+001  2.500000e+000
    endloop
  endfacet
  facet normal  1.392807e-001  7.002146e-001  7.002146e-001
    outer loop
      vertex -1.955000e+001  2.959843e+001  1.500000e+000
      vertex -1.993268e+001  2.867455e+001  2.500000e+000
      vertex -1.955000e+001  2.859843e+001  2.500000e+000
    endloop
  endfacet
  facet normal  0.000000e+000  7.071068e-001  7.071068e-001
    outer loop
      vertex -1.015000e+001  2.859843e+001  2.500000e+000
      vertex -1.015000e+001  2.959843e+001  1.500000e+000
      vertex -1.955000e+001  2.859843e+001  2.500000e+000
    endloop
  endfacet
  facet normal  0.000000e+000  7.071068e-001  7.071068e-001
    outer loop
      vertex -1.955000e+001  2.859843e+001  2.500000e+000
      vertex -1.015000e+001  2.959843e+001  1.500000e+000
      vertex -1.955000e+001  2.959843e+001  1.500000e+000
    endloop
  endfacet
  facet normal -1.392814e-001  7.002144e-001  7.002144e-001
    outer loop
      vertex -1.015000e+001  2.959843e+001  1.500000e+000
      vertex -1.015000e+001  2.859843e+001  2.500000e+000
      vertex -9.767317e+000  2.867455e+001  2.500000e+000
    endloop
  endfacet
  facet normal -3.966384e-001  5.936140e-001  7.002146e-001
    outer loop
      vertex -1.015000e+001  2.959843e+001  1.500000e+000
      vertex -9.767317e+000  2.867455e+001  2.500000e+000
      vertex -9.442893e+000  2.889132e+001  2.500000e+000
    endloop
  endfacet
  facet normal -5.936125e-001  3.966403e-001  7.002147e-001
    outer loop
      vertex -1.015000e+001  2.959843e+001  1.500000e+000
      vertex -9.442893e+000  2.889132e+001  2.500000e+000
      vertex -9.226120e+000  2.921575e+001  2.500000e+000
    endloop
  endfacet
  facet normal -7.002146e-001  1.392807e-001  7.002146e-001
    outer loop
      vertex -1.015000e+001  2.959843e+001  1.500000e+000
      vertex -9.226120e+000  2.921575e+001  2.500000e+000
      vertex -9.150000e+000  2.959843e+001  2.500000e+000
    endloop
  endfacet
  facet normal  0.000000e+000  0.000000e+000  1.000000e+000
    outer loop
      vertex  1.585000e+001  2.859843e+001  3.500000e+000
      vertex  1.392612e+001  2.821575e+001  3.500000e+000
      vertex  1.955000e+001  2.859843e+001  3.500000e+000
    endloop
  endfacet
  facet normal  0.000000e+000  -0.000000e+000  1.000000e+000
    outer loop
      vertex -1.955000e+001  6.689843e+001  3.500000e+000
      vertex  1.955000e+001  6.689843e+001  3.500000e+000
      vertex  2.055000e+001  6.789843e+001  3.500000e+000
    endloop
  endfacet
  facet normal  0.000000e+000  0.000000e+000  1.000000e+000
    outer loop
      vertex -1.955000e+001  6.689843e+001  3.500000e+000
      vertex  2.055000e+001  6.789843e+001  3.500000e+000
      vertex -2.055000e+001  6.789843e+001  3.500000e+000
    endloop
  endfacet
  facet normal  0.000000e+000  0.000000e+000  1.000000e+000
    outer loop
      vertex -1.955000e+001  6.689843e+001  3.500000e+000
      vertex -2.055000e+001  6.789843e+001  3.500000e+000
      vertex -2.147388e+001  6.728111e+001  3.500000e+000
    endloop
  endfacet
  facet normal  0.000000e+000  0.000000e+000  1.000000e+000
    outer loop
      vertex -1.955000e+001  6.689843e+001  3.500000e+000
      vertex -2.147388e+001  6.728111e+001  3.500000e+000
      vertex -2.155000e+001  6.689843e+001  3.500000e+000
    endloop
  endfacet
  facet normal  0.000000e+000  -0.000000e+000  1.000000e+000
    outer loop
      vertex  1.385000e+001  2.859843e+001  3.500000e+000
      vertex  1.392612e+001  2.821575e+001  3.500000e+000
      vertex  1.585000e+001  2.859843e+001  3.500000e+000
    endloop
  endfacet
  facet normal  0.000000e+000  0.000000e+000  1.000000e+000
    outer loop
      vertex  1.385000e+001  2.859843e+001  3.500000e+000
      vertex  1.585000e+001  2.859843e+001  3.500000e+000
      vertex  1.546732e+001  2.867455e+001  3.500000e+000
    endloop
  endfacet
  facet normal  0.000000e+000  0.000000e+000  1.000000e+000
    outer loop
      vertex  1.385000e+001  2.859843e+001  3.500000e+000
      vertex  1.546732e+001  2.867455e+001  3.500000e+000
      vertex  1.514289e+001  2.889132e+001  3.500000e+000
    endloop
  endfacet
  facet normal  0.000000e+000  0.000000e+000  1.000000e+000
    outer loop
      vertex  1.385000e+001  2.859843e+001  3.500000e+000
      vertex  1.514289e+001  2.889132e+001  3.500000e+000
      vertex  1.492612e+001  2.921575e+001  3.500000e+000
    endloop
  endfacet
  facet normal  0.000000e+000  0.000000e+000  9.999999e-001
    outer loop
      vertex  1.385000e+001  2.859843e+001  3.500000e+000
      vertex  1.492612e+001  2.921575e+001  3.500000e+000
      vertex  1.485000e+001  2.959843e+001  3.500000e+000
    endloop
  endfacet
  facet normal  0.000000e+000  -0.000000e+000  1.000000e+000
    outer loop
      vertex  1.385000e+001  2.859843e+001  3.500000e+000
      vertex  1.485000e+001  2.959843e+001  3.500000e+000
      vertex  1.485000e+001  3.809843e+001  3.500000e+000
    endloop
  endfacet
  facet normal  0.000000e+000  0.000000e+000  1.000000e+000
    outer loop
      vertex  1.385000e+001  2.859843e+001  3.500000e+000
      vertex  1.485000e+001  3.809843e+001  3.500000e+000
      vertex  1.385000e+001  3.709843e+001  3.500000e+000
    endloop
  endfacet
  facet normal  0.000000e+000  0.000000e+000  1.000000e+000
    outer loop
      vertex -8.226120e+000  2.821575e+001  3.500000e+000
      vertex -1.015000e+001  2.859843e+001  3.500000e+000
      vertex -1.955000e+001  2.859843e+001  3.500000e+000
    endloop
  endfacet
  facet normal  0.000000e+000  0.000000e+000  1.000000e+000
    outer loop
      vertex -8.226120e+000  2.821575e+001  3.500000e+000
      vertex -1.955000e+001  2.859843e+001  3.500000e+000
      vertex -2.155000e+001  2.859843e+001  3.500000e+000
    endloop
  endfacet
  facet normal  0.000000e+000  0.000000e+000  1.000000e+000
    outer loop
      vertex -8.226120e+000  2.821575e+001  3.500000e+000
      vertex -2.155000e+001  2.859843e+001  3.500000e+000
      vertex -2.147388e+001  2.821575e+001  3.500000e+000
    endloop
  endfacet
  facet normal  -0.000000e+000  0.000000e+000  1.000000e+000
    outer loop
      vertex -8.226120e+000  2.821575e+001  3.500000e+000
      vertex -2.147388e+001  2.821575e+001  3.500000e+000
      vertex -2.125711e+001  2.789132e+001  3.500000e+000
    endloop
  endfacet
  facet normal  0.000000e+000  0.000000e+000  1.000000e+000
    outer loop
      vertex -8.226120e+000  2.821575e+001  3.500000e+000
      vertex -2.125711e+001  2.789132e+001  3.500000e+000
      vertex -8.442893e+000  2.789132e+001  3.500000e+000
    endloop
  endfacet
  facet normal  0.000000e+000  0.000000e+000  1.000000e+000
    outer loop
      vertex -8.150000e+000  2.859843e+001  3.500000e+000
      vertex -8.150000e+000  3.709843e+001  3.500000e+000
      vertex -9.150000e+000  3.809843e+001  3.500000e+000
    endloop
  endfacet
  facet normal  0.000000e+000  0.000000e+000  1.000000e+000
    outer loop
      vertex -8.150000e+000  2.859843e+001  3.500000e+000
      vertex -9.150000e+000  3.809843e+001  3.500000e+000
      vertex -9.150000e+000  2.959843e+001  3.500000e+000
    endloop
  endfacet
  facet normal  0.000000e+000  0.000000e+000  9.999999e-001
    outer loop
      vertex -8.150000e+000  2.859843e+001  3.500000e+000
      vertex -9.150000e+000  2.959843e+001  3.500000e+000
      vertex -9.226120e+000  2.921575e+001  3.500000e+000
    endloop
  endfacet
  facet normal  0.000000e+000  0.000000e+000  1.000000e+000
    outer loop
      vertex -8.150000e+000  2.859843e+001  3.500000e+000
      vertex -9.226120e+000  2.921575e+001  3.500000e+000
      vertex -9.442893e+000  2.889132e+001  3.500000e+000
    endloop
  endfacet
  facet normal  0.000000e+000  0.000000e+000  1.000000e+000
    outer loop
      vertex -8.150000e+000  2.859843e+001  3.500000e+000
      vertex -9.442893e+000  2.889132e+001  3.500000e+000
      vertex -9.767317e+000  2.867455e+001  3.500000e+000
    endloop
  endfacet
  facet normal  0.000000e+000  0.000000e+000  1.000000e+000
    outer loop
      vertex -8.150000e+000  2.859843e+001  3.500000e+000
      vertex -9.767317e+000  2.867455e+001  3.500000e+000
      vertex -1.015000e+001  2.859843e+001  3.500000e+000
    endloop
  endfacet
  facet normal  -0.000000e+000  0.000000e+000  1.000000e+000
    outer loop
      vertex -8.150000e+000  2.859843e+001  3.500000e+000
      vertex -1.015000e+001  2.859843e+001  3.500000e+000
      vertex -8.226120e+000  2.821575e+001  3.500000e+000
    endloop
  endfacet
  facet normal  0.000000e+000  0.000000e+000  1.000000e+000
    outer loop
      vertex -2.155000e+001  6.689843e+001  3.500000e+000
      vertex -2.155000e+001  2.859843e+001  3.500000e+000
      vertex -2.055000e+001  2.959843e+001  3.500000e+000
    endloop
  endfacet
  facet normal  0.000000e+000  -0.000000e+000  1.000000e+000
    outer loop
      vertex -2.155000e+001  6.689843e+001  3.500000e+000
      vertex -2.055000e+001  2.959843e+001  3.500000e+000
      vertex -2.055000e+001  6.589843e+001  3.500000e+000
    endloop
  endfacet
  facet normal  0.000000e+000  -0.000000e+000  9.999999e-001
    outer loop
      vertex -2.155000e+001  6.689843e+001  3.500000e+000
      vertex -2.055000e+001  6.589843e+001  3.500000e+000
      vertex -2.047388e+001  6.628111e+001  3.500000e+000
    endloop
  endfacet
  facet normal  0.000000e+000  -0.000000e+000  1.000000e+000
    outer loop
      vertex -2.155000e+001  6.689843e+001  3.500000e+000
      vertex -2.047388e+001  6.628111e+001  3.500000e+000
      vertex -2.025711e+001  6.660554e+001  3.500000e+000
    endloop
  endfacet
  facet normal  0.000000e+000  -0.000000e+000  1.000000e+000
    outer loop
      vertex -2.155000e+001  6.689843e+001  3.500000e+000
      vertex -2.025711e+001  6.660554e+001  3.500000e+000
      vertex -1.993268e+001  6.682231e+001  3.500000e+000
    endloop
  endfacet
  facet normal  0.000000e+000  -0.000000e+000  1.000000e+000
    outer loop
      vertex -2.155000e+001  6.689843e+001  3.500000e+000
      vertex -1.993268e+001  6.682231e+001  3.500000e+000
      vertex -1.955000e+001  6.689843e+001  3.500000e+000
    endloop
  endfacet
  facet normal  0.000000e+000  0.000000e+000  1.000000e+000
    outer loop
      vertex -2.155000e+001  2.859843e+001  3.500000e+000
      vertex -1.955000e+001  2.859843e+001  3.500000e+000
      vertex -1.993268e+001  2.867455e+001  3.500000e+000
    endloop
  endfacet
  facet normal  0.000000e+000  0.000000e+000  1.000000e+000
    outer loop
      vertex -2.155000e+001  2.859843e+001  3.500000e+000
      vertex -1.993268e+001  2.867455e+001  3.500000e+000
      vertex -2.025711e+001  2.889132e+001  3.500000e+000
    endloop
  endfacet
  facet normal  0.000000e+000  0.000000e+000  1.000000e+000
    outer loop
      vertex -2.155000e+001  2.859843e+001  3.500000e+000
      vertex -2.025711e+001  2.889132e+001  3.500000e+000
      vertex -2.047388e+001  2.921575e+001  3.500000e+000
    endloop
  endfacet
  facet normal  0.000000e+000  0.000000e+000  9.999999e-001
    outer loop
      vertex -2.155000e+001  2.859843e+001  3.500000e+000
      vertex -2.047388e+001  2.921575e+001  3.500000e+000
      vertex -2.055000e+001  2.959843e+001  3.500000e+000
    endloop
  endfacet
  facet normal  0.000000e+000  0.000000e+000  1.000000e+000
    outer loop
      vertex  2.155000e+001  6.689843e+001  3.500000e+000
      vertex  2.147388e+001  6.728111e+001  3.500000e+000
      vertex  1.955000e+001  6.689843e+001  3.500000e+000
    endloop
  endfacet
  facet normal  -0.000000e+000  0.000000e+000  1.000000e+000
    outer loop
      vertex  2.155000e+001  6.689843e+001  3.500000e+000
      vertex  1.955000e+001  6.689843e+001  3.500000e+000
      vertex  1.993268e+001  6.682231e+001  3.500000e+000
    endloop
  endfacet
  facet normal  -0.000000e+000  0.000000e+000  1.000000e+000
    outer loop
      vertex  2.155000e+001  6.689843e+001  3.500000e+000
      vertex  1.993268e+001  6.682231e+001  3.500000e+000
      vertex  2.025711e+001  6.660554e+001  3.500000e+000
    endloop
  endfacet
  facet normal  -0.000000e+000  0.000000e+000  1.000000e+000
    outer loop
      vertex  2.155000e+001  6.689843e+001  3.500000e+000
      vertex  2.025711e+001  6.660554e+001  3.500000e+000
      vertex  2.047388e+001  6.628111e+001  3.500000e+000
    endloop
  endfacet
  facet normal  -0.000000e+000  0.000000e+000  9.999999e-001
    outer loop
      vertex  2.155000e+001  6.689843e+001  3.500000e+000
      vertex  2.047388e+001  6.628111e+001  3.500000e+000
      vertex  2.055000e+001  6.589843e+001  3.500000e+000
    endloop
  endfacet
  facet normal  -0.000000e+000  0.000000e+000  1.000000e+000
    outer loop
      vertex  2.155000e+001  6.689843e+001  3.500000e+000
      vertex  2.055000e+001  6.589843e+001  3.500000e+000
      vertex  2.055000e+001  2.959843e+001  3.500000e+000
    endloop
  endfacet
  facet normal  -0.000000e+000  0.000000e+000  1.000000e+000
    outer loop
      vertex  2.155000e+001  6.689843e+001  3.500000e+000
      vertex  2.055000e+001  2.959843e+001  3.500000e+000
      vertex  2.155000e+001  2.859843e+001  3.500000e+000
    endloop
  endfacet
  facet normal  0.000000e+000  0.000000e+000  9.999999e-001
    outer loop
      vertex  2.155000e+001  2.859843e+001  3.500000e+000
      vertex  2.055000e+001  2.959843e+001  3.500000e+000
      vertex  2.047388e+001  2.921575e+001  3.500000e+000
    endloop
  endfacet
  facet normal  0.000000e+000  0.000000e+000  1.000000e+000
    outer loop
      vertex  2.155000e+001  2.859843e+001  3.500000e+000
      vertex  2.047388e+001  2.921575e+001  3.500000e+000
      vertex  2.025711e+001  2.889132e+001  3.500000e+000
    endloop
  endfacet
  facet normal  0.000000e+000  0.000000e+000  1.000000e+000
    outer loop
      vertex  2.155000e+001  2.859843e+001  3.500000e+000
      vertex  2.025711e+001  2.889132e+001  3.500000e+000
      vertex  1.993268e+001  2.867455e+001  3.500000e+000
    endloop
  endfacet
  facet normal  0.000000e+000  0.000000e+000  1.000000e+000
    outer loop
      vertex  2.155000e+001  2.859843e+001  3.500000e+000
      vertex  1.993268e+001  2.867455e+001  3.500000e+000
      vertex  1.955000e+001  2.859843e+001  3.500000e+000
    endloop
  endfacet
  facet normal  -0.000000e+000  0.000000e+000  1.000000e+000
    outer loop
      vertex  2.155000e+001  2.859843e+001  3.500000e+000
      vertex  1.955000e+001  2.859843e+001  3.500000e+000
      vertex  1.392612e+001  2.821575e+001  3.500000e+000
    endloop
  endfacet
  facet normal  0.000000e+000  0.000000e+000  1.000000e+000
    outer loop
      vertex  2.155000e+001  2.859843e+001  3.500000e+000
      vertex  1.392612e+001  2.821575e+001  3.500000e+000
      vertex  2.147388e+001  2.821575e+001  3.500000e+000
    endloop
  endfacet
  facet normal  0.000000e+000  -0.000000e+000  1.000000e+000
    outer loop
      vertex -9.150000e+000  3.809843e+001  3.500000e+000
      vertex -8.150000e+000  3.709843e+001  3.500000e+000
      vertex  1.485000e+001  3.809843e+001  3.500000e+000
    endloop
  endfacet
  facet normal  0.000000e+000  0.000000e+000  1.000000e+000
    outer loop
      vertex  1.485000e+001  3.809843e+001  3.500000e+000
      vertex -8.150000e+000  3.709843e+001  3.500000e+000
      vertex  1.385000e+001  3.709843e+001  3.500000e+000
    endloop
  endfacet
  facet normal  0.000000e+000  0.000000e+000  9.999999e-001
    outer loop
      vertex -2.093268e+001  6.782231e+001  3.500000e+000
      vertex -2.125711e+001  6.760554e+001  3.500000e+000
      vertex -2.055000e+001  6.789843e+001  3.500000e+000
    endloop
  endfacet
  facet normal  0.000000e+000  0.000000e+000  1.000000e+000
    outer loop
      vertex -2.055000e+001  6.789843e+001  3.500000e+000
      vertex -2.125711e+001  6.760554e+001  3.500000e+000
      vertex -2.147388e+001  6.728111e+001  3.500000e+000
    endloop
  endfacet
  facet normal  0.000000e+000  0.000000e+000  9.999999e-001
    outer loop
      vertex  2.147388e+001  6.728111e+001  3.500000e+000
      vertex  2.125711e+001  6.760554e+001  3.500000e+000
      vertex  1.955000e+001  6.689843e+001  3.500000e+000
    endloop
  endfacet
  facet normal  0.000000e+000  0.000000e+000  1.000000e+000
    outer loop
      vertex  1.955000e+001  6.689843e+001  3.500000e+000
      vertex  2.125711e+001  6.760554e+001  3.500000e+000
      vertex  2.093268e+001  6.782231e+001  3.500000e+000
    endloop
  endfacet
  facet normal  0.000000e+000  0.000000e+000  9.999999e-001
    outer loop
      vertex  1.955000e+001  6.689843e+001  3.500000e+000
      vertex  2.093268e+001  6.782231e+001  3.500000e+000
      vertex  2.055000e+001  6.789843e+001  3.500000e+000
    endloop
  endfacet
  facet normal  -0.000000e+000  0.000000e+000  1.000000e+000
    outer loop
      vertex -8.442893e+000  2.789132e+001  3.500000e+000
      vertex -2.125711e+001  2.789132e+001  3.500000e+000
      vertex -8.767317e+000  2.767455e+001  3.500000e+000
    endloop
  endfacet
  facet normal  0.000000e+000  0.000000e+000  1.000000e+000
    outer loop
      vertex -8.767317e+000  2.767455e+001  3.500000e+000
      vertex -2.125711e+001  2.789132e+001  3.500000e+000
      vertex -2.093268e+001  2.767455e+001  3.500000e+000
    endloop
  endfacet
  facet normal  -0.000000e+000  0.000000e+000  1.000000e+000
    outer loop
      vertex -8.767317e+000  2.767455e+001  3.500000e+000
      vertex -2.093268e+001  2.767455e+001  3.500000e+000
      vertex -9.150000e+000  2.759843e+001  3.500000e+000
    endloop
  endfacet
  facet normal  0.000000e+000  0.000000e+000  1.000000e+000
    outer loop
      vertex -9.150000e+000  2.759843e+001  3.500000e+000
      vertex -2.093268e+001  2.767455e+001  3.500000e+000
      vertex -2.055000e+001  2.759843e+001  3.500000e+000
    endloop
  endfacet
  facet normal  -0.000000e+000  0.000000e+000  1.000000e+000
    outer loop
      vertex  2.147388e+001  2.821575e+001  3.500000e+000
      vertex  1.392612e+001  2.821575e+001  3.500000e+000
      vertex  2.125711e+001  2.789132e+001  3.500000e+000
    endloop
  endfacet
  facet normal  0.000000e+000  0.000000e+000  1.000000e+000
    outer loop
      vertex  2.125711e+001  2.789132e+001  3.500000e+000
      vertex  1.392612e+001  2.821575e+001  3.500000e+000
      vertex  1.414289e+001  2.789132e+001  3.500000e+000
    endloop
  endfacet
  facet normal  -0.000000e+000  0.000000e+000  1.000000e+000
    outer loop
      vertex  2.125711e+001  2.789132e+001  3.500000e+000
      vertex  1.414289e+001  2.789132e+001  3.500000e+000
      vertex  2.093268e+001  2.767455e+001  3.500000e+000
    endloop
  endfacet
  facet normal  0.000000e+000  0.000000e+000  1.000000e+000
    outer loop
      vertex  2.093268e+001  2.767455e+001  3.500000e+000
      vertex  1.414289e+001  2.789132e+001  3.500000e+000
      vertex  1.446732e+001  2.767455e+001  3.500000e+000
    endloop
  endfacet
  facet normal  -0.000000e+000  0.000000e+000  1.000000e+000
    outer loop
      vertex  2.093268e+001  2.767455e+001  3.500000e+000
      vertex  1.446732e+001  2.767455e+001  3.500000e+000
      vertex  2.055000e+001  2.759843e+001  3.500000e+000
    endloop
  endfacet
  facet normal  0.000000e+000  0.000000e+000  1.000000e+000
    outer loop
      vertex  2.055000e+001  2.759843e+001  3.500000e+000
      vertex  1.446732e+001  2.767455e+001  3.500000e+000
      vertex  1.485000e+001  2.759843e+001  3.500000e+000
    endloop
  endfacet
  facet normal  0.000000e+000 -1.000000e+000  0.000000e+000
    outer loop
      vertex  1.485000e+001  2.759843e+001  3.500000e+000
      vertex  1.485000e+001  2.759843e+001  1.500000e+000
      vertex  2.055000e+001  2.759843e+001  3.500000e+000
    endloop
  endfacet
  facet normal  0.000000e+000 -1.000000e+000  -0.000000e+000
    outer loop
      vertex  2.055000e+001  2.759843e+001  3.500000e+000
      vertex  1.485000e+001  2.759843e+001  1.500000e+000
      vertex  2.055000e+001  2.759843e+001  1.500000e+000
    endloop
  endfacet
  facet normal -1.000000e+000  -0.000000e+000  0.000000e+000
    outer loop
      vertex  1.385000e+001  2.859843e+001  3.500000e+000
      vertex  1.385000e+001  3.709843e+001  3.500000e+000
      vertex  1.385000e+001  2.859843e+001  1.500000e+000
    endloop
  endfacet
  facet normal -1.000000e+000  0.000000e+000  0.000000e+000
    outer loop
      vertex  1.385000e+001  2.859843e+001  1.500000e+000
      vertex  1.385000e+001  3.709843e+001  3.500000e+000
      vertex  1.385000e+001  3.709843e+001  1.500000e+000
    endloop
  endfacet
  facet normal  0.000000e+000  0.000000e+000  1.000000e+000
    outer loop
      vertex -9.150000e+000  2.759843e+001  1.500000e+000
      vertex  1.385000e+001  2.859843e+001  1.500000e+000
      vertex -8.767317e+000  2.767455e+001  1.500000e+000
    endloop
  endfacet
  facet normal  -0.000000e+000  0.000000e+000  1.000000e+000
    outer loop
      vertex  1.385000e+001  3.709843e+001  1.500000e+000
      vertex -8.150000e+000  3.709843e+001  1.500000e+000
      vertex -8.150000e+000  2.859843e+001  1.500000e+000
    endloop
  endfacet
  facet normal  -0.000000e+000  0.000000e+000  1.000000e+000
    outer loop
      vertex  1.385000e+001  3.709843e+001  1.500000e+000
      vertex -8.150000e+000  2.859843e+001  1.500000e+000
      vertex -8.226120e+000  2.821575e+001  1.500000e+000
    endloop
  endfacet
  facet normal  -0.000000e+000  0.000000e+000  1.000000e+000
    outer loop
      vertex  1.385000e+001  3.709843e+001  1.500000e+000
      vertex -8.226120e+000  2.821575e+001  1.500000e+000
      vertex -8.442893e+000  2.789132e+001  1.500000e+000
    endloop
  endfacet
  facet normal  -0.000000e+000  0.000000e+000  9.999999e-001
    outer loop
      vertex  1.385000e+001  3.709843e+001  1.500000e+000
      vertex -8.442893e+000  2.789132e+001  1.500000e+000
      vertex -8.767317e+000  2.767455e+001  1.500000e+000
    endloop
  endfacet
  facet normal  0.000000e+000  0.000000e+000  1.000000e+000
    outer loop
      vertex  1.385000e+001  3.709843e+001  1.500000e+000
      vertex -8.767317e+000  2.767455e+001  1.500000e+000
      vertex  1.385000e+001  2.859843e+001  1.500000e+000
    endloop
  endfacet
  facet normal  -0.000000e+000  -0.000000e+000  1.000000e+000
    outer loop
      vertex -2.325000e+001  2.739843e+001  1.500000e+000
      vertex -2.317658e+001  2.693490e+001  1.500000e+000
      vertex -2.296353e+001  2.651675e+001  1.500000e+000
    endloop
  endfacet
  facet normal  -0.000000e+000  -0.000000e+000  1.000000e+000
    outer loop
      vertex -2.325000e+001  2.739843e+001  1.500000e+000
      vertex -2.296353e+001  2.651675e+001  1.500000e+000
      vertex -2.263168e+001  2.618490e+001  1.500000e+000
    endloop
  endfacet
  facet normal  -0.000000e+000  -0.000000e+000  9.999999e-001
    outer loop
      vertex -2.325000e+001  2.739843e+001  1.500000e+000
      vertex -2.263168e+001  2.618490e+001  1.500000e+000
      vertex -2.221353e+001  2.597185e+001  1.500000e+000
    endloop
  endfacet
  facet normal  -0.000000e+000  -0.000000e+000  1.000000e+000
    outer loop
      vertex -2.325000e+001  2.739843e+001  1.500000e+000
      vertex -2.221353e+001  2.597185e+001  1.500000e+000
      vertex -2.175000e+001  2.589843e+001  1.500000e+000
    endloop
  endfacet
  facet normal  0.000000e+000  -0.000000e+000  1.000000e+000
    outer loop
      vertex -2.325000e+001  2.739843e+001  1.500000e+000
      vertex -2.175000e+001  2.589843e+001  1.500000e+000
      vertex -9.150000e+000  2.759843e+001  1.500000e+000
    endloop
  endfacet
  facet normal  0.000000e+000  0.000000e+000  1.000000e+000
    outer loop
      vertex -2.325000e+001  2.739843e+001  1.500000e+000
      vertex -9.150000e+000  2.759843e+001  1.500000e+000
      vertex -2.055000e+001  2.759843e+001  1.500000e+000
    endloop
  endfacet
  facet normal  0.000000e+000  0.000000e+000  1.000000e+000
    outer loop
      vertex -2.325000e+001  2.739843e+001  1.500000e+000
      vertex -2.055000e+001  2.759843e+001  1.500000e+000
      vertex -2.093268e+001  2.767455e+001  1.500000e+000
    endloop
  endfacet
  facet normal  0.000000e+000  0.000000e+000  1.000000e+000
    outer loop
      vertex -2.325000e+001  2.739843e+001  1.500000e+000
      vertex -2.093268e+001  2.767455e+001  1.500000e+000
      vertex -2.125711e+001  2.789132e+001  1.500000e+000
    endloop
  endfacet
  facet normal  0.000000e+000  0.000000e+000  1.000000e+000
    outer loop
      vertex -2.325000e+001  2.739843e+001  1.500000e+000
      vertex -2.125711e+001  2.789132e+001  1.500000e+000
      vertex -2.147388e+001  2.821575e+001  1.500000e+000
    endloop
  endfacet
  facet normal  0.000000e+000  0.000000e+000  1.000000e+000
    outer loop
      vertex -2.325000e+001  2.739843e+001  1.500000e+000
      vertex -2.147388e+001  2.821575e+001  1.500000e+000
      vertex -2.155000e+001  2.859843e+001  1.500000e+000
    endloop
  endfacet
  facet normal  0.000000e+000  -0.000000e+000  1.000000e+000
    outer loop
      vertex -2.325000e+001  2.739843e+001  1.500000e+000
      vertex -2.155000e+001  2.859843e+001  1.500000e+000
      vertex -2.155000e+001  6.689843e+001  1.500000e+000
    endloop
  endfacet
  facet normal  0.000000e+000  0.000000e+000  1.000000e+000
    outer loop
      vertex -2.325000e+001  2.739843e+001  1.500000e+000
      vertex -2.155000e+001  6.689843e+001  1.500000e+000
      vertex -2.325000e+001  6.809843e+001  1.500000e+000
    endloop
  endfacet
  facet normal  0.000000e+000  0.000000e+000  9.999999e-001
    outer loop
      vertex -2.175000e+001  2.589843e+001  1.500000e+000
      vertex  2.175000e+001  2.589843e+001  1.500000e+000
      vertex  2.055000e+001  2.759843e+001  1.500000e+000
    endloop
  endfacet
  facet normal  0.000000e+000  0.000000e+000  1.000000e+000
    outer loop
      vertex -2.175000e+001  2.589843e+001  1.500000e+000
      vertex  2.055000e+001  2.759843e+001  1.500000e+000
      vertex  1.485000e+001  2.759843e+001  1.500000e+000
    endloop
  endfacet
  facet normal  0.000000e+000  0.000000e+000  1.000000e+000
    outer loop
      vertex -2.175000e+001  2.589843e+001  1.500000e+000
      vertex  1.485000e+001  2.759843e+001  1.500000e+000
      vertex  1.446732e+001  2.767455e+001  1.500000e+000
    endloop
  endfacet
  facet normal  0.000000e+000  0.000000e+000  1.000000e+000
    outer loop
      vertex -2.175000e+001  2.589843e+001  1.500000e+000
      vertex  1.446732e+001  2.767455e+001  1.500000e+000
      vertex  1.414289e+001  2.789132e+001  1.500000e+000
    endloop
  endfacet
  facet normal  0.000000e+000  0.000000e+000  1.000000e+000
    outer loop
      vertex -2.175000e+001  2.589843e+001  1.500000e+000
      vertex  1.414289e+001  2.789132e+001  1.500000e+000
      vertex  1.392612e+001  2.821575e+001  1.500000e+000
    endloop
  endfacet
  facet normal  0.000000e+000  0.000000e+000  1.000000e+000
    outer loop
      vertex -2.175000e+001  2.589843e+001  1.500000e+000
      vertex  1.392612e+001  2.821575e+001  1.500000e+000
      vertex  1.385000e+001  2.859843e+001  1.500000e+000
    endloop
  endfacet
  facet normal  0.000000e+000  0.000000e+000  1.000000e+000
    outer loop
      vertex -2.175000e+001  2.589843e+001  1.500000e+000
      vertex  1.385000e+001  2.859843e+001  1.500000e+000
      vertex -9.150000e+000  2.759843e+001  1.500000e+000
    endloop
  endfacet
  facet normal  0.000000e+000  -0.000000e+000  9.999999e-001
    outer loop
      vertex  2.055000e+001  2.759843e+001  1.500000e+000
      vertex  2.175000e+001  2.589843e+001  1.500000e+000
      vertex  2.221353e+001  2.597185e+001  1.500000e+000
    endloop
  endfacet
  facet normal  0.000000e+000  -0.000000e+000  1.000000e+000
    outer loop
      vertex  2.055000e+001  2.759843e+001  1.500000e+000
      vertex  2.221353e+001  2.597185e+001  1.500000e+000
      vertex  2.263168e+001  2.618490e+001  1.500000e+000
    endloop
  endfacet
  facet normal  0.000000e+000  -0.000000e+000  1.000000e+000
    outer loop
      vertex  2.055000e+001  2.759843e+001  1.500000e+000
      vertex  2.263168e+001  2.618490e+001  1.500000e+000
      vertex  2.296353e+001  2.651675e+001  1.500000e+000
    endloop
  endfacet
  facet normal  0.000000e+000  -0.000000e+000  1.000000e+000
    outer loop
      vertex  2.055000e+001  2.759843e+001  1.500000e+000
      vertex  2.296353e+001  2.651675e+001  1.500000e+000
      vertex  2.317658e+001  2.693490e+001  1.500000e+000
    endloop
  endfacet
  facet normal  0.000000e+000  -0.000000e+000  1.000000e+000
    outer loop
      vertex  2.055000e+001  2.759843e+001  1.500000e+000
      vertex  2.317658e+001  2.693490e+001  1.500000e+000
      vertex  2.325000e+001  2.739843e+001  1.500000e+000
    endloop
  endfacet
  facet normal  0.000000e+000  -0.000000e+000  1.000000e+000
    outer loop
      vertex -2.325000e+001  6.809843e+001  1.500000e+000
      vertex -2.155000e+001  6.689843e+001  1.500000e+000
      vertex -2.147388e+001  6.728111e+001  1.500000e+000
    endloop
  endfacet
  facet normal  0.000000e+000  -0.000000e+000  1.000000e+000
    outer loop
      vertex -2.325000e+001  6.809843e+001  1.500000e+000
      vertex -2.147388e+001  6.728111e+001  1.500000e+000
      vertex -2.125711e+001  6.760554e+001  1.500000e+000
    endloop
  endfacet
  facet normal  0.000000e+000  -0.000000e+000  1.000000e+000
    outer loop
      vertex -2.325000e+001  6.809843e+001  1.500000e+000
      vertex -2.125711e+001  6.760554e+001  1.500000e+000
      vertex -2.093268e+001  6.782231e+001  1.500000e+000
    endloop
  endfacet
  facet normal  0.000000e+000  -0.000000e+000  1.000000e+000
    outer loop
      vertex -2.325000e+001  6.809843e+001  1.500000e+000
      vertex -2.093268e+001  6.782231e+001  1.500000e+000
      vertex -2.055000e+001  6.789843e+001  1.500000e+000
    endloop
  endfacet
  facet normal  0.000000e+000  0.000000e+000  1.000000e+000
    outer loop
      vertex -2.325000e+001  6.809843e+001  1.500000e+000
      vertex -2.055000e+001  6.789843e+001  1.500000e+000
      vertex -2.175000e+001  6.959843e+001  1.500000e+000
    endloop
  endfacet
  facet normal  0.000000e+000  0.000000e+000  1.000000e+000
    outer loop
      vertex -2.325000e+001  6.809843e+001  1.500000e+000
      vertex -2.175000e+001  6.959843e+001  1.500000e+000
      vertex -2.221353e+001  6.952502e+001  1.500000e+000
    endloop
  endfacet
  facet normal  0.000000e+000  0.000000e+000  1.000000e+000
    outer loop
      vertex -2.325000e+001  6.809843e+001  1.500000e+000
      vertex -2.221353e+001  6.952502e+001  1.500000e+000
      vertex -2.263168e+001  6.931196e+001  1.500000e+000
    endloop
  endfacet
  facet normal  0.000000e+000  0.000000e+000  1.000000e+000
    outer loop
      vertex -2.325000e+001  6.809843e+001  1.500000e+000
      vertex -2.263168e+001  6.931196e+001  1.500000e+000
      vertex -2.296353e+001  6.898011e+001  1.500000e+000
    endloop
  endfacet
  facet normal  0.000000e+000  0.000000e+000  1.000000e+000
    outer loop
      vertex -2.325000e+001  6.809843e+001  1.500000e+000
      vertex -2.296353e+001  6.898011e+001  1.500000e+000
      vertex -2.317658e+001  6.856196e+001  1.500000e+000
    endloop
  endfacet
  facet normal  0.000000e+000  0.000000e+000  1.000000e+000
    outer loop
      vertex  2.055000e+001  6.789843e+001  1.500000e+000
      vertex  2.325000e+001  6.809843e+001  1.500000e+000
      vertex  2.317658e+001  6.856196e+001  1.500000e+000
    endloop
  endfacet
  facet normal  0.000000e+000  0.000000e+000  1.000000e+000
    outer loop
      vertex  2.055000e+001  6.789843e+001  1.500000e+000
      vertex  2.317658e+001  6.856196e+001  1.500000e+000
      vertex  2.296353e+001  6.898011e+001  1.500000e+000
    endloop
  endfacet
  facet normal  0.000000e+000  0.000000e+000  1.000000e+000
    outer loop
      vertex  2.055000e+001  6.789843e+001  1.500000e+000
      vertex  2.296353e+001  6.898011e+001  1.500000e+000
      vertex  2.263168e+001  6.931196e+001  1.500000e+000
    endloop
  endfacet
  facet normal  0.000000e+000  0.000000e+000  1.000000e+000
    outer loop
      vertex  2.055000e+001  6.789843e+001  1.500000e+000
      vertex  2.263168e+001  6.931196e+001  1.500000e+000
      vertex  2.221353e+001  6.952502e+001  1.500000e+000
    endloop
  endfacet
  facet normal  0.000000e+000  0.000000e+000  1.000000e+000
    outer loop
      vertex  2.055000e+001  6.789843e+001  1.500000e+000
      vertex  2.221353e+001  6.952502e+001  1.500000e+000
      vertex  2.175000e+001  6.959843e+001  1.500000e+000
    endloop
  endfacet
  facet normal  0.000000e+000  0.000000e+000  1.000000e+000
    outer loop
      vertex  2.055000e+001  6.789843e+001  1.500000e+000
      vertex  2.175000e+001  6.959843e+001  1.500000e+000
      vertex -2.175000e+001  6.959843e+001  1.500000e+000
    endloop
  endfacet
  facet normal  0.000000e+000  0.000000e+000  1.000000e+000
    outer loop
      vertex  2.055000e+001  6.789843e+001  1.500000e+000
      vertex -2.175000e+001  6.959843e+001  1.500000e+000
      vertex -2.055000e+001  6.789843e+001  1.500000e+000
    endloop
  endfacet
  facet normal  -0.000000e+000  0.000000e+000  1.000000e+000
    outer loop
      vertex  2.325000e+001  6.809843e+001  1.500000e+000
      vertex  2.055000e+001  6.789843e+001  1.500000e+000
      vertex  2.093268e+001  6.782231e+001  1.500000e+000
    endloop
  endfacet
  facet normal  -0.000000e+000  0.000000e+000  1.000000e+000
    outer loop
      vertex  2.325000e+001  6.809843e+001  1.500000e+000
      vertex  2.093268e+001  6.782231e+001  1.500000e+000
      vertex  2.125711e+001  6.760554e+001  1.500000e+000
    endloop
  endfacet
  facet normal  -0.000000e+000  0.000000e+000  1.000000e+000
    outer loop
      vertex  2.325000e+001  6.809843e+001  1.500000e+000
      vertex  2.125711e+001  6.760554e+001  1.500000e+000
      vertex  2.147388e+001  6.728111e+001  1.500000e+000
    endloop
  endfacet
  facet normal  -0.000000e+000  0.000000e+000  1.000000e+000
    outer loop
      vertex  2.325000e+001  6.809843e+001  1.500000e+000
      vertex  2.147388e+001  6.728111e+001  1.500000e+000
      vertex  2.155000e+001  6.689843e+001  1.500000e+000
    endloop
  endfacet
  facet normal  -0.000000e+000  0.000000e+000  1.000000e+000
    outer loop
      vertex  2.325000e+001  6.809843e+001  1.500000e+000
      vertex  2.155000e+001  6.689843e+001  1.500000e+000
      vertex  2.155000e+001  2.859843e+001  1.500000e+000
    endloop
  endfacet
  facet normal  -0.000000e+000  0.000000e+000  1.000000e+000
    outer loop
      vertex  2.325000e+001  6.809843e+001  1.500000e+000
      vertex  2.155000e+001  2.859843e+001  1.500000e+000
      vertex  2.325000e+001  2.739843e+001  1.500000e+000
    endloop
  endfacet
  facet normal  0.000000e+000  0.000000e+000  1.000000e+000
    outer loop
      vertex  2.325000e+001  2.739843e+001  1.500000e+000
      vertex  2.155000e+001  2.859843e+001  1.500000e+000
      vertex  2.147388e+001  2.821575e+001  1.500000e+000
    endloop
  endfacet
  facet normal  0.000000e+000  0.000000e+000  1.000000e+000
    outer loop
      vertex  2.325000e+001  2.739843e+001  1.500000e+000
      vertex  2.147388e+001  2.821575e+001  1.500000e+000
      vertex  2.125711e+001  2.789132e+001  1.500000e+000
    endloop
  endfacet
  facet normal  0.000000e+000  0.000000e+000  1.000000e+000
    outer loop
      vertex  2.325000e+001  2.739843e+001  1.500000e+000
      vertex  2.125711e+001  2.789132e+001  1.500000e+000
      vertex  2.093268e+001  2.767455e+001  1.500000e+000
    endloop
  endfacet
  facet normal  0.000000e+000  0.000000e+000  1.000000e+000
    outer loop
      vertex  2.325000e+001  2.739843e+001  1.500000e+000
      vertex  2.093268e+001  2.767455e+001  1.500000e+000
      vertex  2.055000e+001  2.759843e+001  1.500000e+000
    endloop
  endfacet
  facet normal -1.950899e-001 -9.807853e-001  -0.000000e+000
    outer loop
      vertex  1.485000e+001  2.759843e+001  1.500000e+000
      vertex  1.485000e+001  2.759843e+001  3.500000e+000
      vertex  1.446732e+001  2.767455e+001  1.500000e+000
    endloop
  endfacet
  facet normal -1.950899e-001 -9.807853e-001  0.000000e+000
    outer loop
      vertex  1.446732e+001  2.767455e+001  1.500000e+000
      vertex  1.485000e+001  2.759843e+001  3.500000e+000
      vertex  1.446732e+001  2.767455e+001  3.500000e+000
    endloop
  endfacet
  facet normal -5.555685e-001 -8.314707e-001  -0.000000e+000
    outer loop
      vertex  1.446732e+001  2.767455e+001  1.500000e+000
      vertex  1.446732e+001  2.767455e+001  3.500000e+000
      vertex  1.414289e+001  2.789132e+001  1.500000e+000
    endloop
  endfacet
  facet normal -5.555685e-001 -8.314707e-001  0.000000e+000
    outer loop
      vertex  1.414289e+001  2.789132e+001  1.500000e+000
      vertex  1.446732e+001  2.767455e+001  3.500000e+000
      vertex  1.414289e+001  2.789132e+001  3.500000e+000
    endloop
  endfacet
  facet normal -8.314700e-001 -5.555696e-001  -0.000000e+000
    outer loop
      vertex  1.414289e+001  2.789132e+001  1.500000e+000
      vertex  1.414289e+001  2.789132e+001  3.500000e+000
      vertex  1.392612e+001  2.821575e+001  1.500000e+000
    endloop
  endfacet
  facet normal -8.314700e-001 -5.555696e-001  0.000000e+000
    outer loop
      vertex  1.392612e+001  2.821575e+001  1.500000e+000
      vertex  1.414289e+001  2.789132e+001  3.500000e+000
      vertex  1.392612e+001  2.821575e+001  3.500000e+000
    endloop
  endfacet
  facet normal -9.807855e-001 -1.950895e-001  -0.000000e+000
    outer loop
      vertex  1.392612e+001  2.821575e+001  1.500000e+000
      vertex  1.392612e+001  2.821575e+001  3.500000e+000
      vertex  1.385000e+001  2.859843e+001  1.500000e+000
    endloop
  endfacet
  facet normal -9.807855e-001 -1.950895e-001  0.000000e+000
    outer loop
      vertex  1.385000e+001  2.859843e+001  1.500000e+000
      vertex  1.392612e+001  2.821575e+001  3.500000e+000
      vertex  1.385000e+001  2.859843e+001  3.500000e+000
    endloop
  endfacet
  facet normal  0.000000e+000 -1.000000e+000  0.000000e+000
    outer loop
      vertex -2.055000e+001  2.759843e+001  3.500000e+000
      vertex -2.055000e+001  2.759843e+001  1.500000e+000
      vertex -9.150000e+000  2.759843e+001  3.500000e+000
    endloop
  endfacet
  facet normal  0.000000e+000 -1.000000e+000  -0.000000e+000
    outer loop
      vertex -9.150000e+000  2.759843e+001  3.500000e+000
      vertex -2.055000e+001  2.759843e+001  1.500000e+000
      vertex -9.150000e+000  2.759843e+001  1.500000e+000
    endloop
  endfacet
  facet normal  1.000000e+000  -0.000000e+000  0.000000e+000
    outer loop
      vertex -8.150000e+000  3.709843e+001  3.500000e+000
      vertex -8.150000e+000  2.859843e+001  3.500000e+000
      vertex -8.150000e+000  3.709843e+001  1.500000e+000
    endloop
  endfacet
  facet normal  1.000000e+000  0.000000e+000  0.000000e+000
    outer loop
      vertex -8.150000e+000  3.709843e+001  1.500000e+000
      vertex -8.150000e+000  2.859843e+001  3.500000e+000
      vertex -8.150000e+000  2.859843e+001  1.500000e+000
    endloop
  endfacet
  facet normal  9.807855e-001 -1.950895e-001  0.000000e+000
    outer loop
      vertex -8.150000e+000  2.859843e+001  1.500000e+000
      vertex -8.150000e+000  2.859843e+001  3.500000e+000
      vertex -8.226120e+000  2.821575e+001  1.500000e+000
    endloop
  endfacet
  facet normal  9.807855e-001 -1.950895e-001  0.000000e+000
    outer loop
      vertex -8.226120e+000  2.821575e+001  1.500000e+000
      vertex -8.150000e+000  2.859843e+001  3.500000e+000
      vertex -8.226120e+000  2.821575e+001  3.500000e+000
    endloop
  endfacet
  facet normal  8.314689e-001 -5.555713e-001  0.000000e+000
    outer loop
      vertex -8.226120e+000  2.821575e+001  1.500000e+000
      vertex -8.226120e+000  2.821575e+001  3.500000e+000
      vertex -8.442893e+000  2.789132e+001  1.500000e+000
    endloop
  endfacet
  facet normal  8.314689e-001 -5.555713e-001  0.000000e+000
    outer loop
      vertex -8.442893e+000  2.789132e+001  1.500000e+000
      vertex -8.226120e+000  2.821575e+001  3.500000e+000
      vertex -8.442893e+000  2.789132e+001  3.500000e+000
    endloop
  endfacet
  facet normal  5.555685e-001 -8.314707e-001  0.000000e+000
    outer loop
      vertex -8.442893e+000  2.789132e+001  1.500000e+000
      vertex -8.442893e+000  2.789132e+001  3.500000e+000
      vertex -8.767317e+000  2.767455e+001  1.500000e+000
    endloop
  endfacet
  facet normal  5.555685e-001 -8.314707e-001  0.000000e+000
    outer loop
      vertex -8.767317e+000  2.767455e+001  1.500000e+000
      vertex -8.442893e+000  2.789132e+001  3.500000e+000
      vertex -8.767317e+000  2.767455e+001  3.500000e+000
    endloop
  endfacet
  facet normal  1.950904e-001 -9.807853e-001  0.000000e+000
    outer loop
      vertex -8.767317e+000  2.767455e+001  1.500000e+000
      vertex -8.767317e+000  2.767455e+001  3.500000e+000
      vertex -9.150000e+000  2.759843e+001  1.500000e+000
    endloop
  endfacet
  facet normal  1.950904e-001 -9.807853e-001  0.000000e+000
    outer loop
      vertex -9.150000e+000  2.759843e+001  1.500000e+000
      vertex -8.767317e+000  2.767455e+001  3.500000e+000
      vertex -9.150000e+000  2.759843e+001  3.500000e+000
    endloop
  endfacet
  facet normal  0.000000e+000  1.000000e+000  -0.000000e+000
    outer loop
      vertex  2.055000e+001  6.789843e+001  3.500000e+000
      vertex  2.055000e+001  6.789843e+001  1.500000e+000
      vertex -2.055000e+001  6.789843e+001  3.500000e+000
    endloop
  endfacet
  facet normal  0.000000e+000  1.000000e+000  0.000000e+000
    outer loop
      vertex -2.055000e+001  6.789843e+001  3.500000e+000
      vertex  2.055000e+001  6.789843e+001  1.500000e+000
      vertex -2.055000e+001  6.789843e+001  1.500000e+000
    endloop
  endfacet
  facet normal -1.000000e+000  0.000000e+000  0.000000e+000
    outer loop
      vertex -2.155000e+001  6.689843e+001  3.500000e+000
      vertex -2.155000e+001  6.689843e+001  1.500000e+000
      vertex -2.155000e+001  2.859843e+001  3.500000e+000
    endloop
  endfacet
  facet normal -1.000000e+000  0.000000e+000  0.000000e+000
    outer loop
      vertex -2.155000e+001  2.859843e+001  3.500000e+000
      vertex -2.155000e+001  6.689843e+001  1.500000e+000
      vertex -2.155000e+001  2.859843e+001  1.500000e+000
    endloop
  endfacet
  facet normal -9.807853e-001  1.950904e-001  0.000000e+000
    outer loop
      vertex -2.155000e+001  6.689843e+001  1.500000e+000
      vertex -2.155000e+001  6.689843e+001  3.500000e+000
      vertex -2.147388e+001  6.728111e+001  1.500000e+000
    endloop
  endfacet
  facet normal -9.807853e-001  1.950904e-001  0.000000e+000
    outer loop
      vertex -2.147388e+001  6.728111e+001  1.500000e+000
      vertex -2.155000e+001  6.689843e+001  3.500000e+000
      vertex -2.147388e+001  6.728111e+001  3.500000e+000
    endloop
  endfacet
  facet normal -8.314715e-001  5.555674e-001  0.000000e+000
    outer loop
      vertex -2.147388e+001  6.728111e+001  1.500000e+000
      vertex -2.147388e+001  6.728111e+001  3.500000e+000
      vertex -2.125711e+001  6.760554e+001  1.500000e+000
    endloop
  endfacet
  facet normal -8.314715e-001  5.555674e-001  0.000000e+000
    outer loop
      vertex -2.125711e+001  6.760554e+001  1.500000e+000
      vertex -2.147388e+001  6.728111e+001  3.500000e+000
      vertex -2.125711e+001  6.760554e+001  3.500000e+000
    endloop
  endfacet
  facet normal -5.555730e-001  8.314677e-001  0.000000e+000
    outer loop
      vertex -2.125711e+001  6.760554e+001  1.500000e+000
      vertex -2.125711e+001  6.760554e+001  3.500000e+000
      vertex -2.093268e+001  6.782231e+001  1.500000e+000
    endloop
  endfacet
  facet normal -5.555730e-001  8.314677e-001  0.000000e+000
    outer loop
      vertex -2.093268e+001  6.782231e+001  1.500000e+000
      vertex -2.125711e+001  6.760554e+001  3.500000e+000
      vertex -2.093268e+001  6.782231e+001  3.500000e+000
    endloop
  endfacet
  facet normal -1.950848e-001  9.807864e-001  0.000000e+000
    outer loop
      vertex -2.093268e+001  6.782231e+001  1.500000e+000
      vertex -2.093268e+001  6.782231e+001  3.500000e+000
      vertex -2.055000e+001  6.789843e+001  1.500000e+000
    endloop
  endfacet
  facet normal -1.950848e-001  9.807864e-001  0.000000e+000
    outer loop
      vertex -2.055000e+001  6.789843e+001  1.500000e+000
      vertex -2.093268e+001  6.782231e+001  3.500000e+000
      vertex -2.055000e+001  6.789843e+001  3.500000e+000
    endloop
  endfacet
  facet normal  1.000000e+000  0.000000e+000  0.000000e+000
    outer loop
      vertex  2.155000e+001  2.859843e+001  3.500000e+000
      vertex  2.155000e+001  2.859843e+001  1.500000e+000
      vertex  2.155000e+001  6.689843e+001  3.500000e+000
    endloop
  endfacet
  facet normal  1.000000e+000  0.000000e+000  0.000000e+000
    outer loop
      vertex  2.155000e+001  6.689843e+001  3.500000e+000
      vertex  2.155000e+001  2.859843e+001  1.500000e+000
      vertex  2.155000e+001  6.689843e+001  1.500000e+000
    endloop
  endfacet
  facet normal  1.950848e-001  9.807864e-001  0.000000e+000
    outer loop
      vertex  2.055000e+001  6.789843e+001  1.500000e+000
      vertex  2.055000e+001  6.789843e+001  3.500000e+000
      vertex  2.093268e+001  6.782231e+001  1.500000e+000
    endloop
  endfacet
  facet normal  1.950848e-001  9.807864e-001  -0.000000e+000
    outer loop
      vertex  2.093268e+001  6.782231e+001  1.500000e+000
      vertex  2.055000e+001  6.789843e+001  3.500000e+000
      vertex  2.093268e+001  6.782231e+001  3.500000e+000
    endloop
  endfacet
  facet normal  5.555730e-001  8.314677e-001  0.000000e+000
    outer loop
      vertex  2.093268e+001  6.782231e+001  1.500000e+000
      vertex  2.093268e+001  6.782231e+001  3.500000e+000
      vertex  2.125711e+001  6.760554e+001  1.500000e+000
    endloop
  endfacet
  facet normal  5.555730e-001  8.314677e-001  -0.000000e+000
    outer loop
      vertex  2.125711e+001  6.760554e+001  1.500000e+000
      vertex  2.093268e+001  6.782231e+001  3.500000e+000
      vertex  2.125711e+001  6.760554e+001  3.500000e+000
    endloop
  endfacet
  facet normal  8.314715e-001  5.555674e-001  0.000000e+000
    outer loop
      vertex  2.125711e+001  6.760554e+001  1.500000e+000
      vertex  2.125711e+001  6.760554e+001  3.500000e+000
      vertex  2.147388e+001  6.728111e+001  1.500000e+000
    endloop
  endfacet
  facet normal  8.314715e-001  5.555674e-001  -0.000000e+000
    outer loop
      vertex  2.147388e+001  6.728111e+001  1.500000e+000
      vertex  2.125711e+001  6.760554e+001  3.500000e+000
      vertex  2.147388e+001  6.728111e+001  3.500000e+000
    endloop
  endfacet
  facet normal  9.807853e-001  1.950904e-001  0.000000e+000
    outer loop
      vertex  2.147388e+001  6.728111e+001  1.500000e+000
      vertex  2.147388e+001  6.728111e+001  3.500000e+000
      vertex  2.155000e+001  6.689843e+001  1.500000e+000
    endloop
  endfacet
  facet normal  9.807853e-001  1.950904e-001  -0.000000e+000
    outer loop
      vertex  2.155000e+001  6.689843e+001  1.500000e+000
      vertex  2.147388e+001  6.728111e+001  3.500000e+000
      vertex  2.155000e+001  6.689843e+001  3.500000e+000
    endloop
  endfacet
  facet normal  9.807855e-001 -1.950895e-001  0.000000e+000
    outer loop
      vertex  2.155000e+001  2.859843e+001  1.500000e+000
      vertex  2.155000e+001  2.859843e+001  3.500000e+000
      vertex  2.147388e+001  2.821575e+001  1.500000e+000
    endloop
  endfacet
  facet normal  9.807855e-001 -1.950895e-001  0.000000e+000
    outer loop
      vertex  2.147388e+001  2.821575e+001  1.500000e+000
      vertex  2.155000e+001  2.859843e+001  3.500000e+000
      vertex  2.147388e+001  2.821575e+001  3.500000e+000
    endloop
  endfacet
  facet normal  8.314700e-001 -5.555696e-001  0.000000e+000
    outer loop
      vertex  2.147388e+001  2.821575e+001  1.500000e+000
      vertex  2.147388e+001  2.821575e+001  3.500000e+000
      vertex  2.125711e+001  2.789132e+001  1.500000e+000
    endloop
  endfacet
  facet normal  8.314700e-001 -5.555696e-001  0.000000e+000
    outer loop
      vertex  2.125711e+001  2.789132e+001  1.500000e+000
      vertex  2.147388e+001  2.821575e+001  3.500000e+000
      vertex  2.125711e+001  2.789132e+001  3.500000e+000
    endloop
  endfacet
  facet normal  5.555696e-001 -8.314700e-001  0.000000e+000
    outer loop
      vertex  2.125711e+001  2.789132e+001  1.500000e+000
      vertex  2.125711e+001  2.789132e+001  3.500000e+000
      vertex  2.093268e+001  2.767455e+001  1.500000e+000
    endloop
  endfacet
  facet normal  5.555696e-001 -8.314700e-001  0.000000e+000
    outer loop
      vertex  2.093268e+001  2.767455e+001  1.500000e+000
      vertex  2.125711e+001  2.789132e+001  3.500000e+000
      vertex  2.093268e+001  2.767455e+001  3.500000e+000
    endloop
  endfacet
  facet normal  1.950895e-001 -9.807855e-001  0.000000e+000
    outer loop
      vertex  2.093268e+001  2.767455e+001  1.500000e+000
      vertex  2.093268e+001  2.767455e+001  3.500000e+000
      vertex  2.055000e+001  2.759843e+001  1.500000e+000
    endloop
  endfacet
  facet normal  1.950895e-001 -9.807855e-001  0.000000e+000
    outer loop
      vertex  2.055000e+001  2.759843e+001  1.500000e+000
      vertex  2.093268e+001  2.767455e+001  3.500000e+000
      vertex  2.055000e+001  2.759843e+001  3.500000e+000
    endloop
  endfacet
  facet normal -1.950895e-001 -9.807855e-001  -0.000000e+000
    outer loop
      vertex -2.055000e+001  2.759843e+001  1.500000e+000
      vertex -2.055000e+001  2.759843e+001  3.500000e+000
      vertex -2.093268e+001  2.767455e+001  1.500000e+000
    endloop
  endfacet
  facet normal -1.950895e-001 -9.807855e-001  0.000000e+000
    outer loop
      vertex -2.093268e+001  2.767455e+001  1.500000e+000
      vertex -2.055000e+001  2.759843e+001  3.500000e+000
      vertex -2.093268e+001  2.767455e+001  3.500000e+000
    endloop
  endfacet
  facet normal -5.555696e-001 -8.314700e-001  -0.000000e+000
    outer loop
      vertex -2.093268e+001  2.767455e+001  1.500000e+000
      vertex -2.093268e+001  2.767455e+001  3.500000e+000
      vertex -2.125711e+001  2.789132e+001  1.500000e+000
    endloop
  endfacet
  facet normal -5.555696e-001 -8.314700e-001  0.000000e+000
    outer loop
      vertex -2.125711e+001  2.789132e+001  1.500000e+000
      vertex -2.093268e+001  2.767455e+001  3.500000e+000
      vertex -2.125711e+001  2.789132e+001  3.500000e+000
    endloop
  endfacet
  facet normal -8.314700e-001 -5.555696e-001  -0.000000e+000
    outer loop
      vertex -2.125711e+001  2.789132e+001  1.500000e+000
      vertex -2.125711e+001  2.789132e+001  3.500000e+000
      vertex -2.147388e+001  2.821575e+001  1.500000e+000
    endloop
  endfacet
  facet normal -8.314700e-001 -5.555696e-001  0.000000e+000
    outer loop
      vertex -2.147388e+001  2.821575e+001  1.500000e+000
      vertex -2.125711e+001  2.789132e+001  3.500000e+000
      vertex -2.147388e+001  2.821575e+001  3.500000e+000
    endloop
  endfacet
  facet normal -9.807855e-001 -1.950895e-001  -0.000000e+000
    outer loop
      vertex -2.147388e+001  2.821575e+001  1.500000e+000
      vertex -2.147388e+001  2.821575e+001  3.500000e+000
      vertex -2.155000e+001  2.859843e+001  1.500000e+000
    endloop
  endfacet
  facet normal -9.807855e-001 -1.950895e-001  0.000000e+000
    outer loop
      vertex -2.155000e+001  2.859843e+001  1.500000e+000
      vertex -2.147388e+001  2.821575e+001  3.500000e+000
      vertex -2.155000e+001  2.859843e+001  3.500000e+000
    endloop
  endfacet
  facet normal  0.000000e+000  0.000000e+000 -1.000000e+000
    outer loop
      vertex  2.325000e+001  6.809843e+001  0.000000e+000
      vertex -2.317658e+001  6.856196e+001  0.000000e+000
      vertex  2.317658e+001  6.856196e+001  0.000000e+000
    endloop
  endfacet
  facet normal  0.000000e+000  0.000000e+000 -1.000000e+000
    outer loop
      vertex  2.317658e+001  6.856196e+001  0.000000e+000
      vertex -2.317658e+001  6.856196e+001  0.000000e+000
      vertex -2.296353e+001  6.898011e+001  0.000000e+000
    endloop
  endfacet
  facet normal  0.000000e+000  0.000000e+000 -1.000000e+000
    outer loop
      vertex  2.317658e+001  6.856196e+001  0.000000e+000
      vertex -2.296353e+001  6.898011e+001  0.000000e+000
      vertex  2.296353e+001  6.898011e+001  0.000000e+000
    endloop
  endfacet
  facet normal  0.000000e+000  0.000000e+000 -9.999999e-001
    outer loop
      vertex  2.296353e+001  6.898011e+001  0.000000e+000
      vertex -2.296353e+001  6.898011e+001  0.000000e+000
      vertex -2.263168e+001  6.931196e+001  0.000000e+000
    endloop
  endfacet
  facet normal  0.000000e+000  0.000000e+000 -1.000000e+000
    outer loop
      vertex  2.296353e+001  6.898011e+001  0.000000e+000
      vertex -2.263168e+001  6.931196e+001  0.000000e+000
      vertex  2.263168e+001  6.931196e+001  0.000000e+000
    endloop
  endfacet
  facet normal  0.000000e+000  0.000000e+000 -1.000000e+000
    outer loop
      vertex  2.263168e+001  6.931196e+001  0.000000e+000
      vertex -2.263168e+001  6.931196e+001  0.000000e+000
      vertex -2.221353e+001  6.952502e+001  0.000000e+000
    endloop
  endfacet
  facet normal  0.000000e+000  0.000000e+000 -1.000000e+000
    outer loop
      vertex  2.263168e+001  6.931196e+001  0.000000e+000
      vertex -2.221353e+001  6.952502e+001  0.000000e+000
      vertex  2.221353e+001  6.952502e+001  0.000000e+000
    endloop
  endfacet
  facet normal  0.000000e+000  0.000000e+000 -9.999999e-001
    outer loop
      vertex  2.221353e+001  6.952502e+001  0.000000e+000
      vertex -2.221353e+001  6.952502e+001  0.000000e+000
      vertex -2.175000e+001  6.959843e+001  0.000000e+000
    endloop
  endfacet
  facet normal  0.000000e+000  0.000000e+000 -1.000000e+000
    outer loop
      vertex  2.221353e+001  6.952502e+001  0.000000e+000
      vertex -2.175000e+001  6.959843e+001  0.000000e+000
      vertex  2.175000e+001  6.959843e+001  0.000000e+000
    endloop
  endfacet
  facet normal  0.000000e+000  0.000000e+000 -1.000000e+000
    outer loop
      vertex -2.317658e+001  6.856196e+001  0.000000e+000
      vertex  2.325000e+001  6.809843e+001  0.000000e+000
      vertex -2.325000e+001  6.809843e+001  0.000000e+000
    endloop
  endfacet
  facet normal  0.000000e+000  0.000000e+000 -1.000000e+000
    outer loop
      vertex -2.325000e+001  6.809843e+001  0.000000e+000
      vertex  2.325000e+001  6.809843e+001  0.000000e+000
      vertex  2.325000e+001  2.739843e+001  0.000000e+000
    endloop
  endfacet
  facet normal  0.000000e+000  0.000000e+000 -1.000000e+000
    outer loop
      vertex -2.325000e+001  6.809843e+001  0.000000e+000
      vertex  2.325000e+001  2.739843e+001  0.000000e+000
      vertex -2.325000e+001  2.739843e+001  0.000000e+000
    endloop
  endfacet
  facet normal  0.000000e+000  0.000000e+000 -1.000000e+000
    outer loop
      vertex -2.325000e+001  2.739843e+001  0.000000e+000
      vertex  2.325000e+001  2.739843e+001  0.000000e+000
      vertex  2.317658e+001  2.693490e+001  0.000000e+000
    endloop
  endfacet
  facet normal  0.000000e+000  0.000000e+000 -1.000000e+000
    outer loop
      vertex -2.325000e+001  2.739843e+001  0.000000e+000
      vertex  2.317658e+001  2.693490e+001  0.000000e+000
      vertex -2.317658e+001  2.693490e+001  0.000000e+000
    endloop
  endfacet
  facet normal  0.000000e+000  0.000000e+000 -1.000000e+000
    outer loop
      vertex -2.317658e+001  2.693490e+001  0.000000e+000
      vertex  2.317658e+001  2.693490e+001  0.000000e+000
      vertex  2.296353e+001  2.651675e+001  0.000000e+000
    endloop
  endfacet
  facet normal  0.000000e+000  0.000000e+000 -1.000000e+000
    outer loop
      vertex -2.317658e+001  2.693490e+001  0.000000e+000
      vertex  2.296353e+001  2.651675e+001  0.000000e+000
      vertex -2.296353e+001  2.651675e+001  0.000000e+000
    endloop
  endfacet
  facet normal  0.000000e+000  0.000000e+000 -9.999999e-001
    outer loop
      vertex -2.296353e+001  2.651675e+001  0.000000e+000
      vertex  2.296353e+001  2.651675e+001  0.000000e+000
      vertex  2.263168e+001  2.618490e+001  0.000000e+000
    endloop
  endfacet
  facet normal  0.000000e+000  0.000000e+000 -1.000000e+000
    outer loop
      vertex -2.296353e+001  2.651675e+001  0.000000e+000
      vertex  2.263168e+001  2.618490e+001  0.000000e+000
      vertex -2.263168e+001  2.618490e+001  0.000000e+000
    endloop
  endfacet
  facet normal  0.000000e+000  0.000000e+000 -1.000000e+000
    outer loop
      vertex -2.263168e+001  2.618490e+001  0.000000e+000
      vertex  2.263168e+001  2.618490e+001  0.000000e+000
      vertex  2.221353e+001  2.597185e+001  0.000000e+000
    endloop
  endfacet
  facet normal  0.000000e+000  0.000000e+000 -1.000000e+000
    outer loop
      vertex -2.263168e+001  2.618490e+001  0.000000e+000
      vertex  2.221353e+001  2.597185e+001  0.000000e+000
      vertex -2.221353e+001  2.597185e+001  0.000000e+000
    endloop
  endfacet
  facet normal  0.000000e+000  0.000000e+000 -1.000000e+000
    outer loop
      vertex -2.221353e+001  2.597185e+001  0.000000e+000
      vertex  2.221353e+001  2.597185e+001  0.000000e+000
      vertex  2.175000e+001  2.589843e+001  0.000000e+000
    endloop
  endfacet
  facet normal  0.000000e+000  0.000000e+000 -1.000000e+000
    outer loop
      vertex -2.221353e+001  2.597185e+001  0.000000e+000
      vertex  2.175000e+001  2.589843e+001  0.000000e+000
      vertex -2.175000e+001  2.589843e+001  0.000000e+000
    endloop
  endfacet
  facet normal  1.000000e+000  0.000000e+000  0.000000e+000
    outer loop
      vertex  2.325000e+001  2.739843e+001  1.500000e+000
      vertex  2.325000e+001  2.739843e+001  0.000000e+000
      vertex  2.325000e+001  6.809843e+001  1.500000e+000
    endloop
  endfacet
  facet normal  1.000000e+000  0.000000e+000  0.000000e+000
    outer loop
      vertex  2.325000e+001  6.809843e+001  1.500000e+000
      vertex  2.325000e+001  2.739843e+001  0.000000e+000
      vertex  2.325000e+001  6.809843e+001  0.000000e+000
    endloop
  endfacet
  facet normal  0.000000e+000  1.000000e+000  0.000000e+000
    outer loop
      vertex -2.175000e+001  6.959843e+001  1.500000e+000
      vertex  2.175000e+001  6.959843e+001  1.500000e+000
      vertex -2.175000e+001  6.959843e+001  0.000000e+000
    endloop
  endfacet
  facet normal  0.000000e+000  1.000000e+000  0.000000e+000
    outer loop
      vertex -2.175000e+001  6.959843e+001  0.000000e+000
      vertex  2.175000e+001  6.959843e+001  1.500000e+000
      vertex  2.175000e+001  6.959843e+001  0.000000e+000
    endloop
  endfacet
  facet normal  1.564236e-001  9.876900e-001  0.000000e+000
    outer loop
      vertex  2.175000e+001  6.959843e+001  0.000000e+000
      vertex  2.175000e+001  6.959843e+001  1.500000e+000
      vertex  2.221353e+001  6.952502e+001  0.000000e+000
    endloop
  endfacet
  facet normal  1.564236e-001  9.876900e-001  -0.000000e+000
    outer loop
      vertex  2.221353e+001  6.952502e+001  0.000000e+000
      vertex  2.175000e+001  6.959843e+001  1.500000e+000
      vertex  2.221353e+001  6.952502e+001  1.500000e+000
    endloop
  endfacet
  facet normal  4.539896e-001  8.910070e-001  0.000000e+000
    outer loop
      vertex  2.221353e+001  6.952502e+001  0.000000e+000
      vertex  2.221353e+001  6.952502e+001  1.500000e+000
      vertex  2.263168e+001  6.931196e+001  0.000000e+000
    endloop
  endfacet
  facet normal  4.539896e-001  8.910070e-001  -0.000000e+000
    outer loop
      vertex  2.263168e+001  6.931196e+001  0.000000e+000
      vertex  2.221353e+001  6.952502e+001  1.500000e+000
      vertex  2.263168e+001  6.931196e+001  1.500000e+000
    endloop
  endfacet
  facet normal  7.071068e-001  7.071068e-001  0.000000e+000
    outer loop
      vertex  2.263168e+001  6.931196e+001  0.000000e+000
      vertex  2.263168e+001  6.931196e+001  1.500000e+000
      vertex  2.296353e+001  6.898011e+001  0.000000e+000
    endloop
  endfacet
  facet normal  7.071068e-001  7.071068e-001  -0.000000e+000
    outer loop
      vertex  2.296353e+001  6.898011e+001  0.000000e+000
      vertex  2.263168e+001  6.931196e+001  1.500000e+000
      vertex  2.296353e+001  6.898011e+001  1.500000e+000
    endloop
  endfacet
  facet normal  8.910070e-001  4.539896e-001  0.000000e+000
    outer loop
      vertex  2.296353e+001  6.898011e+001  0.000000e+000
      vertex  2.296353e+001  6.898011e+001  1.500000e+000
      vertex  2.317658e+001  6.856196e+001  0.000000e+000
    endloop
  endfacet
  facet normal  8.910070e-001  4.539896e-001  -0.000000e+000
    outer loop
      vertex  2.317658e+001  6.856196e+001  0.000000e+000
      vertex  2.296353e+001  6.898011e+001  1.500000e+000
      vertex  2.317658e+001  6.856196e+001  1.500000e+000
    endloop
  endfacet
  facet normal  9.876885e-001  1.564336e-001  0.000000e+000
    outer loop
      vertex  2.317658e+001  6.856196e+001  0.000000e+000
      vertex  2.317658e+001  6.856196e+001  1.500000e+000
      vertex  2.325000e+001  6.809843e+001  0.000000e+000
    endloop
  endfacet
  facet normal  9.876885e-001  1.564336e-001  -0.000000e+000
    outer loop
      vertex  2.325000e+001  6.809843e+001  0.000000e+000
      vertex  2.317658e+001  6.856196e+001  1.500000e+000
      vertex  2.325000e+001  6.809843e+001  1.500000e+000
    endloop
  endfacet
  facet normal  0.000000e+000 -1.000000e+000  0.000000e+000
    outer loop
      vertex  2.175000e+001  2.589843e+001  1.500000e+000
      vertex -2.175000e+001  2.589843e+001  1.500000e+000
      vertex  2.175000e+001  2.589843e+001  0.000000e+000
    endloop
  endfacet
  facet normal  0.000000e+000 -1.000000e+000  0.000000e+000
    outer loop
      vertex  2.175000e+001  2.589843e+001  0.000000e+000
      vertex -2.175000e+001  2.589843e+001  1.500000e+000
      vertex -2.175000e+001  2.589843e+001  0.000000e+000
    endloop
  endfacet
  facet normal  9.876881e-001 -1.564355e-001  0.000000e+000
    outer loop
      vertex  2.325000e+001  2.739843e+001  0.000000e+000
      vertex  2.325000e+001  2.739843e+001  1.500000e+000
      vertex  2.317658e+001  2.693490e+001  0.000000e+000
    endloop
  endfacet
  facet normal  9.876881e-001 -1.564355e-001  0.000000e+000
    outer loop
      vertex  2.317658e+001  2.693490e+001  0.000000e+000
      vertex  2.325000e+001  2.739843e+001  1.500000e+000
      vertex  2.317658e+001  2.693490e+001  1.500000e+000
    endloop
  endfacet
  facet normal  8.910070e-001 -4.539896e-001  0.000000e+000
    outer loop
      vertex  2.317658e+001  2.693490e+001  0.000000e+000
      vertex  2.317658e+001  2.693490e+001  1.500000e+000
      vertex  2.296353e+001  2.651675e+001  0.000000e+000
    endloop
  endfacet
  facet normal  8.910070e-001 -4.539896e-001  0.000000e+000
    outer loop
      vertex  2.296353e+001  2.651675e+001  0.000000e+000
      vertex  2.317658e+001  2.693490e+001  1.500000e+000
      vertex  2.296353e+001  2.651675e+001  1.500000e+000
    endloop
  endfacet
  facet normal  7.071068e-001 -7.071068e-001  0.000000e+000
    outer loop
      vertex  2.296353e+001  2.651675e+001  0.000000e+000
      vertex  2.296353e+001  2.651675e+001  1.500000e+000
      vertex  2.263168e+001  2.618490e+001  0.000000e+000
    endloop
  endfacet
  facet normal  7.071068e-001 -7.071068e-001  0.000000e+000
    outer loop
      vertex  2.263168e+001  2.618490e+001  0.000000e+000
      vertex  2.296353e+001  2.651675e+001  1.500000e+000
      vertex  2.263168e+001  2.618490e+001  1.500000e+000
    endloop
  endfacet
  facet normal  4.539896e-001 -8.910070e-001  0.000000e+000
    outer loop
      vertex  2.263168e+001  2.618490e+001  0.000000e+000
      vertex  2.263168e+001  2.618490e+001  1.500000e+000
      vertex  2.221353e+001  2.597185e+001  0.000000e+000
    endloop
  endfacet
  facet normal  4.539896e-001 -8.910070e-001  0.000000e+000
    outer loop
      vertex  2.221353e+001  2.597185e+001  0.000000e+000
      vertex  2.263168e+001  2.618490e+001  1.500000e+000
      vertex  2.221353e+001  2.597185e+001  1.500000e+000
    endloop
  endfacet
  facet normal  1.564355e-001 -9.876881e-001  0.000000e+000
    outer loop
      vertex  2.221353e+001  2.597185e+001  0.000000e+000
      vertex  2.221353e+001  2.597185e+001  1.500000e+000
      vertex  2.175000e+001  2.589843e+001  0.000000e+000
    endloop
  endfacet
  facet normal  1.564355e-001 -9.876881e-001  0.000000e+000
    outer loop
      vertex  2.175000e+001  2.589843e+001  0.000000e+000
      vertex  2.221353e+001  2.597185e+001  1.500000e+000
      vertex  2.175000e+001  2.589843e+001  1.500000e+000
    endloop
  endfacet
  facet normal -1.000000e+000  0.000000e+000  0.000000e+000
    outer loop
      vertex -2.325000e+001  6.809843e+001  1.500000e+000
      vertex -2.325000e+001  6.809843e+001  0.000000e+000
      vertex -2.325000e+001  2.739843e+001  1.500000e+000
    endloop
  endfacet
  facet normal -1.000000e+000  0.000000e+000  0.000000e+000
    outer loop
      vertex -2.325000e+001  2.739843e+001  1.500000e+000
      vertex -2.325000e+001  6.809843e+001  0.000000e+000
      vertex -2.325000e+001  2.739843e+001  0.000000e+000
    endloop
  endfacet
  facet normal -9.876885e-001  1.564336e-001  0.000000e+000
    outer loop
      vertex -2.325000e+001  6.809843e+001  0.000000e+000
      vertex -2.325000e+001  6.809843e+001  1.500000e+000
      vertex -2.317658e+001  6.856196e+001  0.000000e+000
    endloop
  endfacet
  facet normal -9.876885e-001  1.564336e-001  0.000000e+000
    outer loop
      vertex -2.317658e+001  6.856196e+001  0.000000e+000
      vertex -2.325000e+001  6.809843e+001  1.500000e+000
      vertex -2.317658e+001  6.856196e+001  1.500000e+000
    endloop
  endfacet
  facet normal -8.910070e-001  4.539896e-001  0.000000e+000
    outer loop
      vertex -2.317658e+001  6.856196e+001  0.000000e+000
      vertex -2.317658e+001  6.856196e+001  1.500000e+000
      vertex -2.296353e+001  6.898011e+001  0.000000e+000
    endloop
  endfacet
  facet normal -8.910070e-001  4.539896e-001  0.000000e+000
    outer loop
      vertex -2.296353e+001  6.898011e+001  0.000000e+000
      vertex -2.317658e+001  6.856196e+001  1.500000e+000
      vertex -2.296353e+001  6.898011e+001  1.500000e+000
    endloop
  endfacet
  facet normal -7.071068e-001  7.071068e-001  0.000000e+000
    outer loop
      vertex -2.296353e+001  6.898011e+001  0.000000e+000
      vertex -2.296353e+001  6.898011e+001  1.500000e+000
      vertex -2.263168e+001  6.931196e+001  0.000000e+000
    endloop
  endfacet
  facet normal -7.071068e-001  7.071068e-001  0.000000e+000
    outer loop
      vertex -2.263168e+001  6.931196e+001  0.000000e+000
      vertex -2.296353e+001  6.898011e+001  1.500000e+000
      vertex -2.263168e+001  6.931196e+001  1.500000e+000
    endloop
  endfacet
  facet normal -4.539896e-001  8.910070e-001  0.000000e+000
    outer loop
      vertex -2.263168e+001  6.931196e+001  0.000000e+000
      vertex -2.263168e+001  6.931196e+001  1.500000e+000
      vertex -2.221353e+001  6.952502e+001  0.000000e+000
    endloop
  endfacet
  facet normal -4.539896e-001  8.910070e-001  0.000000e+000
    outer loop
      vertex -2.221353e+001  6.952502e+001  0.000000e+000
      vertex -2.263168e+001  6.931196e+001  1.500000e+000
      vertex -2.221353e+001  6.952502e+001  1.500000e+000
    endloop
  endfacet
  facet normal -1.564236e-001  9.876900e-001  0.000000e+000
    outer loop
      vertex -2.221353e+001  6.952502e+001  0.000000e+000
      vertex -2.221353e+001  6.952502e+001  1.500000e+000
      vertex -2.175000e+001  6.959843e+001  0.000000e+000
    endloop
  endfacet
  facet normal -1.564236e-001  9.876900e-001  0.000000e+000
    outer loop
      vertex -2.175000e+001  6.959843e+001  0.000000e+000
      vertex -2.221353e+001  6.952502e+001  1.500000e+000
      vertex -2.175000e+001  6.959843e+001  1.500000e+000
    endloop
  endfacet
  facet normal -1.564355e-001 -9.876881e-001  -0.000000e+000
    outer loop
      vertex -2.175000e+001  2.589843e+001  0.000000e+000
      vertex -2.175000e+001  2.589843e+001  1.500000e+000
      vertex -2.221353e+001  2.597185e+001  0.000000e+000
    endloop
  endfacet
  facet normal -1.564355e-001 -9.876881e-001  0.000000e+000
    outer loop
      vertex -2.221353e+001  2.597185e+001  0.000000e+000
      vertex -2.175000e+001  2.589843e+001  1.500000e+000
      vertex -2.221353e+001  2.597185e+001  1.500000e+000
    endloop
  endfacet
  facet normal -4.539896e-001 -8.910070e-001  -0.000000e+000
    outer loop
      vertex -2.221353e+001  2.597185e+001  0.000000e+000
      vertex -2.221353e+001  2.597185e+001  1.500000e+000
      vertex -2.263168e+001  2.618490e+001  0.000000e+000
    endloop
  endfacet
  facet normal -4.539896e-001 -8.910070e-001  0.000000e+000
    outer loop
      vertex -2.263168e+001  2.618490e+001  0.000000e+000
      vertex -2.221353e+001  2.597185e+001  1.500000e+000
      vertex -2.263168e+001  2.618490e+001  1.500000e+000
    endloop
  endfacet
  facet normal -7.071068e-001 -7.071068e-001  -0.000000e+000
    outer loop
      vertex -2.263168e+001  2.618490e+001  0.000000e+000
      vertex -2.263168e+001  2.618490e+001  1.500000e+000
      vertex -2.296353e+001  2.651675e+001  0.000000e+000
    endloop
  endfacet
  facet normal -7.071068e-001 -7.071068e-001  0.000000e+000
    outer loop
      vertex -2.296353e+001  2.651675e+001  0.000000e+000
      vertex -2.263168e+001  2.618490e+001  1.500000e+000
      vertex -2.296353e+001  2.651675e+001  1.500000e+000
    endloop
  endfacet
  facet normal -8.910070e-001 -4.539896e-001  -0.000000e+000
    outer loop
      vertex -2.296353e+001  2.651675e+001  0.000000e+000
      vertex -2.296353e+001  2.651675e+001  1.500000e+000
      vertex -2.317658e+001  2.693490e+001  0.000000e+000
    endloop
  endfacet
  facet normal -8.910070e-001 -4.539896e-001  0.000000e+000
    outer loop
      vertex -2.317658e+001  2.693490e+001  0.000000e+000
      vertex -2.296353e+001  2.651675e+001  1.500000e+000
      vertex -2.317658e+001  2.693490e+001  1.500000e+000
    endloop
  endfacet
  facet normal -9.876881e-001 -1.564355e-001  -0.000000e+000
    outer loop
      vertex -2.317658e+001  2.693490e+001  0.000000e+000
      vertex -2.317658e+001  2.693490e+001  1.500000e+000
      vertex -2.325000e+001  2.739843e+001  0.000000e+000
    endloop
  endfacet
  facet normal -9.876881e-001 -1.564355e-001  0.000000e+000
    outer loop
      vertex -2.325000e+001  2.739843e+001  0.000000e+000
      vertex -2.317658e+001  2.693490e+001  1.500000e+000
      vertex -2.325000e+001  2.739843e+001  1.500000e+000
    endloop
  endfacet
  facet normal  0.000000e+000 -1.000000e+000  0.000000e+000
    outer loop
      vertex -8.150000e+000  3.709843e+001  3.500000e+000
      vertex -8.150000e+000  3.709843e+001  1.500000e+000
      vertex  1.385000e+001  3.709843e+001  3.500000e+000
    endloop
  endfacet
  facet normal  0.000000e+000 -1.000000e+000  -0.000000e+000
    outer loop
      vertex  1.385000e+001  3.709843e+001  3.500000e+000
      vertex -8.150000e+000  3.709843e+001  1.500000e+000
      vertex  1.385000e+001  3.709843e+001  1.500000e+000
    endloop
  endfacet
endsolid CATIA STL
